# WaveFront *.obj file (generated by Autodesk ATF)

mtllib Component13.mtl

g Body1

v -0.935240 -230.000000 -46.647050
v -0.935240 -230.000000 -19.600509
v -1.935240 -230.000000 -19.600509
v -1.935240 -230.000000 -46.647050
v -0.935240 -105.000000 -19.600509
v -0.935240 20.000000 -19.600509
v -1.935240 20.000000 -19.600509
v -1.935240 -105.000000 -19.600509
v -1.935240 20.000000 -46.647050
v -1.935240 -105.000000 -46.647050
v -0.935240 20.000000 -46.647050
v -0.935240 -105.000000 -46.647050
vt 1.352327 0.050000 0.000000
vt -1.352327 0.050000 0.000000
vt 1.352327 -0.050000 0.000000
vt -1.352327 -0.050000 0.000000
vt 0.100000 -10.000000 0.000000
vt 0.100000 2.500000 0.000000
vt 0.000000 -10.000000 0.000000
vt 0.000000 2.500000 0.000000
vt 0.100000 15.000000 0.000000
vt 0.000000 15.000000 0.000000
vt 0.000000 -10.000000 0.000000
vt 2.704654 -10.000000 0.000000
vt 0.000000 2.500000 0.000000
vt 2.704654 2.500000 0.000000
vt 0.000000 15.000000 0.000000
vt 2.704654 15.000000 0.000000
vt 0.100000 -10.000000 0.000000
vt 0.100000 2.500000 0.000000
vt 0.000000 -10.000000 0.000000
vt -0.000000 2.500000 0.000000
vt 0.100000 15.000000 0.000000
vt -0.000000 15.000000 0.000000
vt 0.000000 -10.000000 0.000000
vt 2.704654 -10.000000 0.000000
vt 0.000000 2.500000 0.000000
vt 2.704654 2.500000 0.000000
vt 0.000000 15.000000 0.000000
vt 2.704654 15.000000 0.000000
vt 1.352327 0.050000 0.000000
vt -1.352327 0.050000 0.000000
vt 1.352327 -0.050000 0.000000
vt -1.352327 -0.050000 0.000000
vn 0.000000 -0.100000 0.000000
vn 0.000000 -0.100000 0.000000
vn 0.000000 -0.100000 0.000000
vn 0.000000 -0.100000 0.000000
vn 0.000000 0.000000 0.100000
vn 0.000000 0.000000 0.100000
vn 0.000000 0.000000 0.100000
vn 0.000000 0.000000 0.100000
vn 0.000000 0.000000 0.100000
vn 0.000000 0.000000 0.100000
vn -0.100000 0.000000 0.000000
vn -0.100000 0.000000 0.000000
vn -0.100000 0.000000 0.000000
vn -0.100000 0.000000 0.000000
vn -0.100000 0.000000 0.000000
vn -0.100000 0.000000 0.000000
vn 0.000000 0.000000 -0.100000
vn 0.000000 0.000000 -0.100000
vn 0.000000 0.000000 -0.100000
vn 0.000000 0.000000 -0.100000
vn 0.000000 0.000000 -0.100000
vn 0.000000 0.000000 -0.100000
vn 0.100000 0.000000 0.000000
vn 0.100000 0.000000 0.000000
vn 0.100000 0.000000 0.000000
vn 0.100000 0.000000 0.000000
vn 0.100000 0.000000 0.000000
vn 0.100000 0.000000 0.000000
vn 0.000000 0.100000 0.000000
vn 0.000000 0.100000 0.000000
vn 0.000000 0.100000 0.000000
vn 0.000000 0.100000 0.000000
usemtl Mirror
f 1/1/1 2/2/2 4/3/3
f 4/3/3 2/2/2 3/4/4
f 2/5/5 5/6/6 3/7/7
f 3/7/7 5/6/6 8/8/8
f 8/8/8 5/6/6 6/9/9
f 8/8/8 6/9/9 7/10/10
f 4/11/11 3/12/12 10/13/13
f 10/13/13 3/12/12 8/14/14
f 10/13/13 8/14/14 9/15/15
f 9/15/15 8/14/14 7/16/16
f 4/17/17 10/18/18 1/19/19
f 1/19/19 10/18/18 12/20/20
f 12/20/20 10/18/18 9/21/21
f 12/20/20 9/21/21 11/22/22
f 2/23/23 1/24/24 5/25/25
f 5/25/25 1/24/24 12/26/26
f 5/25/25 12/26/26 6/27/27
f 6/27/27 12/26/26 11/28/28
f 6/29/29 11/30/30 7/31/31
f 7/31/31 11/30/30 9/32/32
# 12 vertices
# 32 texture params
# 32 normals
# 20 facets

# 1 groups
