# WaveFront *.obj file (generated by Autodesk ATF)

mtllib Component5.mtl

g Body1

v 16.321175 -230.000000 -32.701177
v 16.321175 -230.000000 -57.381145
v 34.577589 -230.000000 -57.381145
v 34.577589 -230.000000 -32.701177
v 16.321175 -50.000000 -57.381145
v 34.577589 -50.000000 -57.381145
v 34.577589 -50.000000 -32.701177
v 16.321175 -50.000000 -32.701177
vt -1.233998 -0.912821 0.000000
vt 1.233998 -0.912821 0.000000
vt -1.233998 0.912821 0.000000
vt 1.233998 0.912821 0.000000
vt 1.825641 8.000000 0.000000
vt 0.000000 8.000000 0.000000
vt 1.825641 -10.000000 0.000000
vt 0.000000 -10.000000 0.000000
vt 2.467997 8.000000 0.000000
vt 0.000000 8.000000 0.000000
vt 2.467997 -10.000000 0.000000
vt 0.000000 -10.000000 0.000000
vt 1.825641 8.000000 0.000000
vt 0.000000 8.000000 0.000000
vt 1.825641 -10.000000 0.000000
vt 0.000000 -10.000000 0.000000
vt 2.467997 8.000000 0.000000
vt 0.000000 8.000000 0.000000
vt 2.467997 -10.000000 0.000000
vt 0.000000 -10.000000 0.000000
vt -1.233998 -0.912821 0.000000
vt 1.233998 -0.912821 0.000000
vt -1.233998 0.912821 0.000000
vt 1.233998 0.912821 0.000000
vn 0.000000 -0.100000 0.000000
vn 0.000000 -0.100000 0.000000
vn 0.000000 -0.100000 0.000000
vn 0.000000 -0.100000 0.000000
vn 0.000000 0.000000 -0.100000
vn 0.000000 0.000000 -0.100000
vn 0.000000 0.000000 -0.100000
vn 0.000000 0.000000 -0.100000
vn 0.100000 0.000000 0.000000
vn 0.100000 0.000000 0.000000
vn 0.100000 0.000000 0.000000
vn 0.100000 0.000000 0.000000
vn 0.000000 0.000000 0.100000
vn 0.000000 0.000000 0.100000
vn 0.000000 0.000000 0.100000
vn 0.000000 0.000000 0.100000
vn -0.100000 0.000000 0.000000
vn -0.100000 0.000000 0.000000
vn -0.100000 0.000000 0.000000
vn -0.100000 0.000000 0.000000
vn 0.000000 0.100000 0.000000
vn 0.000000 0.100000 0.000000
vn 0.000000 0.100000 0.000000
vn 0.000000 0.100000 0.000000
usemtl Chrome_-_Black
f 1/1/1 2/2/2 4/3/3
f 4/3/3 2/2/2 3/4/4
f 5/5/5 6/6/6 2/7/7
f 2/7/7 6/6/6 3/8/8
f 6/9/9 7/10/10 3/11/11
f 3/11/11 7/10/10 4/12/12
f 7/13/13 8/14/14 4/15/15
f 4/15/15 8/14/14 1/16/16
f 8/17/17 5/18/18 1/19/19
f 1/19/19 5/18/18 2/20/20
f 5/21/21 8/22/22 6/23/23
f 6/23/23 8/22/22 7/24/24
# 8 vertices
# 24 texture params
# 24 normals
# 12 facets

# 1 groups
