# WaveFront *.obj file (generated by Autodesk ATF)

mtllib Component17.mtl

g Body1

v 6.678928 -230.000000 -25.639566
v 20.202198 -230.000000 -4.847538
v 19.363910 -230.000000 -4.302310
v 5.840640 -230.000000 -25.094338
v 20.202198 -105.000000 -4.847538
v 20.202198 20.000000 -4.847538
v 19.363910 20.000000 -4.302310
v 19.363910 -105.000000 -4.302310
v 5.840640 20.000000 -25.094338
v 5.840640 -105.000000 -25.094338
v 6.678928 20.000000 -25.639566
v 6.678928 -105.000000 -25.639566
vt -1.012340 0.718078 0.000000
vt -1.066863 0.634249 0.000000
vt 1.066863 -0.634249 0.000000
vt 1.012340 -0.718078 0.000000
vt 0.100000 -10.000000 0.000000
vt 0.100000 2.500000 0.000000
vt 0.000000 -10.000000 0.000000
vt 0.000000 2.500000 0.000000
vt 0.100000 15.000000 0.000000
vt 0.000000 15.000000 0.000000
vt -0.000000 -10.000000 0.000000
vt 2.480297 -10.000000 0.000000
vt -0.000000 2.500000 0.000000
vt 2.480297 2.500000 0.000000
vt -0.000000 15.000000 0.000000
vt 2.480297 15.000000 0.000000
vt 0.100000 -10.000000 0.000000
vt 0.100000 2.500000 0.000000
vt 0.000000 -10.000000 0.000000
vt 0.000000 2.500000 0.000000
vt 0.100000 15.000000 0.000000
vt 0.000000 15.000000 0.000000
vt -0.000000 -10.000000 0.000000
vt 2.480297 -10.000000 0.000000
vt 0.000000 2.500000 0.000000
vt 2.480297 2.500000 0.000000
vt 0.000000 15.000000 0.000000
vt 2.480297 15.000000 0.000000
vt 1.012340 0.718078 0.000000
vt -1.066863 -0.634249 0.000000
vt 1.066863 0.634249 0.000000
vt -1.012340 -0.718078 0.000000
vn 0.000000 -0.100000 0.000000
vn 0.000000 -0.100000 0.000000
vn 0.000000 -0.100000 0.000000
vn 0.000000 -0.100000 0.000000
vn 0.054523 0.000000 0.083829
vn 0.054523 0.000000 0.083829
vn 0.054523 0.000000 0.083829
vn 0.054523 0.000000 0.083829
vn 0.054523 0.000000 0.083829
vn 0.054523 0.000000 0.083829
vn -0.083829 0.000000 0.054523
vn -0.083829 0.000000 0.054523
vn -0.083829 0.000000 0.054523
vn -0.083829 0.000000 0.054523
vn -0.083829 0.000000 0.054523
vn -0.083829 0.000000 0.054523
vn -0.054523 0.000000 -0.083829
vn -0.054523 0.000000 -0.083829
vn -0.054523 0.000000 -0.083829
vn -0.054523 0.000000 -0.083829
vn -0.054523 0.000000 -0.083829
vn -0.054523 0.000000 -0.083829
vn 0.083829 0.000000 -0.054523
vn 0.083829 0.000000 -0.054523
vn 0.083829 0.000000 -0.054523
vn 0.083829 0.000000 -0.054523
vn 0.083829 0.000000 -0.054523
vn 0.083829 0.000000 -0.054523
vn 0.000000 0.100000 0.000000
vn 0.000000 0.100000 0.000000
vn 0.000000 0.100000 0.000000
vn 0.000000 0.100000 0.000000
usemtl Mirror
f 2/1/1 3/2/2 1/3/3
f 1/3/3 3/2/2 4/4/4
f 2/5/5 5/6/6 3/7/7
f 3/7/7 5/6/6 8/8/8
f 8/8/8 5/6/6 6/9/9
f 8/8/8 6/9/9 7/10/10
f 4/11/11 3/12/12 10/13/13
f 10/13/13 3/12/12 8/14/14
f 10/13/13 8/14/14 9/15/15
f 9/15/15 8/14/14 7/16/16
f 4/17/17 10/18/18 1/19/19
f 1/19/19 10/18/18 12/20/20
f 12/20/20 10/18/18 9/21/21
f 12/20/20 9/21/21 11/22/22
f 2/23/23 1/24/24 5/25/25
f 5/25/25 1/24/24 12/26/26
f 5/25/25 12/26/26 6/27/27
f 6/27/27 12/26/26 11/28/28
f 6/29/29 11/30/30 7/31/31
f 7/31/31 11/30/30 9/32/32
# 12 vertices
# 32 texture params
# 32 normals
# 20 facets

# 1 groups
