# WaveFront *.obj file (generated by Autodesk ATF)

mtllib Component16.mtl

g Body1

v 74.011079 -230.000000 -58.632391
v 74.640277 -230.000000 -59.409636
v 85.289852 -230.000000 -50.788551
v 84.660654 -230.000000 -50.011306
v 74.640277 -105.000000 -59.409636
v 74.640277 20.000000 -59.409636
v 85.289852 20.000000 -50.788551
v 85.289852 -105.000000 -50.788551
v 84.660654 20.000000 -50.011306
v 84.660654 -105.000000 -50.011306
v 74.011079 20.000000 -58.632391
v 74.011079 -105.000000 -58.632391
vt 0.469916 -0.501019 0.000000
vt -0.392192 0.563939 0.000000
vt 0.392192 -0.563939 0.000000
vt -0.469916 0.501019 0.000000
vt 0.000000 -10.000000 0.000000
vt 1.370170 -10.000000 0.000000
vt -0.000000 2.500000 0.000000
vt 1.370170 2.500000 0.000000
vt -0.000000 15.000000 0.000000
vt 1.370170 15.000000 0.000000
vt 0.100000 -10.000000 0.000000
vt 0.100000 2.500000 0.000000
vt 0.000000 -10.000000 0.000000
vt 0.000000 2.500000 0.000000
vt 0.100000 15.000000 0.000000
vt 0.000000 15.000000 0.000000
vt 0.000000 -10.000000 0.000000
vt 1.370170 -10.000000 0.000000
vt 0.000000 2.500000 0.000000
vt 1.370170 2.500000 0.000000
vt 0.000000 15.000000 0.000000
vt 1.370170 15.000000 0.000000
vt 0.100000 -10.000000 0.000000
vt 0.100000 2.500000 0.000000
vt 0.000000 -10.000000 0.000000
vt 0.000000 2.500000 0.000000
vt 0.100000 15.000000 0.000000
vt 0.000000 15.000000 0.000000
vt -0.469916 -0.501019 0.000000
vt -0.392192 -0.563939 0.000000
vt 0.392192 0.563939 0.000000
vt 0.469916 0.501019 0.000000
vn 0.000000 -0.100000 0.000000
vn 0.000000 -0.100000 0.000000
vn 0.000000 -0.100000 0.000000
vn 0.000000 -0.100000 0.000000
vn 0.062920 0.000000 -0.077724
vn 0.062920 0.000000 -0.077724
vn 0.062920 0.000000 -0.077724
vn 0.062920 0.000000 -0.077724
vn 0.062920 0.000000 -0.077724
vn 0.062920 0.000000 -0.077724
vn 0.077724 0.000000 0.062920
vn 0.077724 0.000000 0.062920
vn 0.077724 0.000000 0.062920
vn 0.077724 0.000000 0.062920
vn 0.077724 0.000000 0.062920
vn 0.077724 0.000000 0.062920
vn -0.062920 0.000000 0.077724
vn -0.062920 0.000000 0.077724
vn -0.062920 0.000000 0.077724
vn -0.062920 0.000000 0.077724
vn -0.062920 0.000000 0.077724
vn -0.062920 0.000000 0.077724
vn -0.077724 0.000000 -0.062920
vn -0.077724 0.000000 -0.062920
vn -0.077724 0.000000 -0.062920
vn -0.077724 0.000000 -0.062920
vn -0.077724 0.000000 -0.062920
vn -0.077724 0.000000 -0.062920
vn 0.000000 0.100000 0.000000
vn 0.000000 0.100000 0.000000
vn 0.000000 0.100000 0.000000
vn 0.000000 0.100000 0.000000
usemtl Mirror
f 2/1/1 3/2/2 1/3/3
f 1/3/3 3/2/2 4/4/4
f 3/5/5 2/6/6 8/7/7
f 8/7/7 2/6/6 5/8/8
f 8/7/7 5/8/8 7/9/9
f 7/9/9 5/8/8 6/10/10
f 3/11/11 8/12/12 4/13/13
f 4/13/13 8/12/12 10/14/14
f 10/14/14 8/12/12 7/15/15
f 10/14/14 7/15/15 9/16/16
f 1/17/17 4/18/18 12/19/19
f 12/19/19 4/18/18 10/20/20
f 12/19/19 10/20/20 11/21/21
f 11/21/21 10/20/20 9/22/22
f 1/23/23 12/24/24 2/25/25
f 2/25/25 12/24/24 5/26/26
f 5/26/26 12/24/24 11/27/27
f 5/26/26 11/27/27 6/28/28
f 6/29/29 11/30/30 7/31/31
f 7/31/31 11/30/30 9/32/32
# 12 vertices
# 32 texture params
# 32 normals
# 20 facets

# 1 groups
