# WaveFront *.res file (generated by Autodesk ATF)

mtllib arm_right.mtl

g Body1

v -0.325000 -0.690335 1.064321
v -0.301824 -0.690335 1.067992
v -0.280916 -0.690335 1.078645
v -0.264324 -0.690335 1.095237
v -0.253671 -0.690335 1.116145
v -0.250000 -0.690335 1.139321
v -0.253671 -0.690335 1.162497
v -0.264324 -0.690335 1.183405
v -0.280916 -0.690335 1.199997
v -0.301824 -0.690335 1.210650
v -0.325000 -0.690335 1.214321
v -0.348176 -0.690335 1.210650
v -0.369084 -0.690335 1.199997
v -0.385676 -0.690335 1.183405
v -0.396329 -0.690335 1.162497
v -0.400000 -0.690335 1.139321
v -0.396329 -0.690335 1.116145
v -0.385676 -0.690335 1.095237
v -0.369084 -0.690335 1.078645
v -0.348176 -0.690335 1.067992
v -0.250000 -0.282041 1.139321
v -0.253671 -0.279478 1.116145
v -0.264324 -0.277166 1.095237
v -0.280916 -0.275331 1.078645
v -0.301824 -0.274153 1.067992
v -0.325000 -0.273747 1.064321
v -0.348176 -0.274153 1.067992
v -0.369084 -0.275331 1.078645
v -0.385676 -0.277166 1.095237
v -0.396329 -0.279478 1.116145
v -0.400000 -0.282041 1.139321
v -0.396329 -0.284604 1.162497
v -0.385676 -0.286916 1.183405
v -0.369084 -0.288751 1.199997
v -0.348176 -0.289929 1.210650
v -0.325000 -0.290335 1.214321
v -0.301824 -0.289929 1.210650
v -0.280916 -0.288751 1.199997
v -0.264324 -0.286916 1.183405
v -0.253671 -0.284604 1.162497
v -0.250000 0.116387 1.228532
v -0.253671 0.111323 1.251148
v -0.264324 0.106755 1.271551
v -0.280916 0.103130 1.287742
v -0.301824 0.100802 1.298138
v -0.325000 0.100000 1.301720
v -0.348176 0.100802 1.298138
v -0.369084 0.103130 1.287742
v -0.385676 0.106755 1.271551
v -0.396329 0.111323 1.251148
v -0.400000 0.116387 1.228532
v -0.396329 0.121451 1.205916
v -0.385676 0.126019 1.185513
v -0.369084 0.129645 1.169322
v -0.348176 0.131973 1.158926
v -0.325000 0.132775 1.155344
v -0.301824 0.131973 1.158926
v -0.280916 0.129645 1.169322
v -0.264324 0.126019 1.185513
v -0.253671 0.121451 1.205916
vt 0.000367 0.005182 0.000000
vt 0.014633 0.005182 0.000000
vt 0.000000 0.007500 0.000000
vt 0.015000 0.007500 0.000000
vt 0.000367 0.009818 0.000000
vt 0.014633 0.009818 0.000000
vt 0.001432 0.011908 0.000000
vt 0.013568 0.011908 0.000000
vt 0.003092 0.013568 0.000000
vt 0.011908 0.013568 0.000000
vt 0.005182 0.014633 0.000000
vt 0.009818 0.014633 0.000000
vt 0.007500 0.015000 0.000000
vt 0.013568 0.003092 0.000000
vt 0.001432 0.003092 0.000000
vt 0.011908 0.001432 0.000000
vt 0.003092 0.001432 0.000000
vt 0.009818 0.000367 0.000000
vt 0.005182 0.000367 0.000000
vt 0.007500 0.000000 0.000000
vt 0.001308 0.020028 0.000000
vt -0.039778 0.020028 0.000000
vt 0.001051 0.017671 0.000000
vt -0.039778 0.017671 0.000000
vt 0.000795 0.015315 0.000000
vt -0.039778 0.015315 0.000000
vt 0.000564 0.012959 0.000000
vt -0.039778 0.012959 0.000000
vt 0.000380 0.010603 0.000000
vt -0.039778 0.010603 0.000000
vt 0.000262 0.008247 0.000000
vt -0.039778 0.008247 0.000000
vt 0.000222 0.005890 0.000000
vt -0.039778 0.005890 0.000000
vt -0.039778 0.003534 0.000000
vt -0.039778 0.022384 0.000000
vt 0.001539 0.022384 0.000000
vt -0.039778 0.024740 0.000000
vt 0.001722 0.024740 0.000000
vt -0.039778 -0.022384 0.000000
vt 0.001722 -0.022384 0.000000
vt -0.039778 -0.020028 0.000000
vt 0.001840 -0.020028 0.000000
vt -0.039778 -0.017671 0.000000
vt 0.001881 -0.017671 0.000000
vt 0.001840 -0.015315 0.000000
vt -0.039778 -0.015315 0.000000
vt 0.001722 -0.012959 0.000000
vt -0.039778 -0.012959 0.000000
vt 0.001539 -0.010603 0.000000
vt -0.039778 -0.010603 0.000000
vt 0.001308 -0.008247 0.000000
vt -0.039778 -0.008247 0.000000
vt 0.001051 -0.005890 0.000000
vt -0.039778 -0.005890 0.000000
vt 0.000795 -0.003534 0.000000
vt -0.039778 -0.003534 0.000000
vt 0.000564 -0.001178 0.000000
vt -0.039778 -0.001178 0.000000
vt 0.000380 0.001178 0.000000
vt -0.039778 0.001178 0.000000
vt 0.000262 0.003534 0.000000
vt 0.020578 -0.015315 0.000000
vt -0.021040 -0.015315 0.000000
vt 0.020578 -0.017671 0.000000
vt -0.021081 -0.017671 0.000000
vt -0.021040 -0.020028 0.000000
vt -0.020923 -0.012959 0.000000
vt 0.020578 -0.012959 0.000000
vt -0.020739 -0.010603 0.000000
vt 0.020578 -0.010603 0.000000
vt -0.020508 -0.008247 0.000000
vt 0.020578 -0.008247 0.000000
vt -0.020252 -0.005890 0.000000
vt 0.020578 -0.005890 0.000000
vt -0.019995 -0.003534 0.000000
vt 0.020578 -0.003534 0.000000
vt -0.019764 -0.001178 0.000000
vt 0.020578 -0.001178 0.000000
vt -0.019581 0.001178 0.000000
vt 0.020578 0.001178 0.000000
vt -0.019463 0.003534 0.000000
vt 0.020578 0.003534 0.000000
vt -0.019422 0.005890 0.000000
vt 0.020578 0.005890 0.000000
vt 0.020578 0.008247 0.000000
vt -0.019463 0.008247 0.000000
vt 0.020578 0.010603 0.000000
vt -0.019581 0.010603 0.000000
vt 0.020578 0.012959 0.000000
vt -0.019764 0.012959 0.000000
vt 0.020578 0.015315 0.000000
vt -0.019995 0.015315 0.000000
vt 0.020578 0.017671 0.000000
vt -0.020252 0.017671 0.000000
vt 0.020578 0.020028 0.000000
vt -0.020508 0.020028 0.000000
vt 0.020578 0.022384 0.000000
vt -0.020739 0.022384 0.000000
vt 0.020578 0.024740 0.000000
vt -0.020923 0.024740 0.000000
vt -0.020923 -0.022384 0.000000
vt 0.020578 -0.022384 0.000000
vt 0.020578 -0.020028 0.000000
vt 0.007500 0.000000 0.000000
vt 0.009818 0.000367 0.000000
vt 0.005182 0.000367 0.000000
vt 0.003092 0.001432 0.000000
vt 0.011908 0.001432 0.000000
vt 0.001432 0.003092 0.000000
vt 0.013568 0.003092 0.000000
vt 0.000367 0.005182 0.000000
vt 0.014633 0.005182 0.000000
vt -0.000000 0.007500 0.000000
vt 0.015000 0.007500 0.000000
vt 0.000367 0.009818 0.000000
vt 0.014633 0.009818 0.000000
vt 0.001432 0.011908 0.000000
vt 0.013568 0.011908 0.000000
vt 0.003092 0.013568 0.000000
vt 0.011908 0.013568 0.000000
vt 0.005182 0.014633 0.000000
vt 0.009818 0.014633 0.000000
vt 0.007500 0.015000 0.000000
vn 0.000000 -0.100000 0.000000
vn 0.000000 -0.100000 0.000000
vn 0.000000 -0.100000 0.000000
vn 0.000000 -0.100000 0.000000
vn 0.000000 -0.100000 0.000000
vn 0.000000 -0.100000 0.000000
vn 0.000000 -0.100000 0.000000
vn 0.000000 -0.100000 0.000000
vn 0.000000 -0.100000 0.000000
vn 0.000000 -0.100000 0.000000
vn 0.000000 -0.100000 0.000000
vn 0.000000 -0.100000 0.000000
vn 0.000000 -0.100000 0.000000
vn 0.000000 -0.100000 0.000000
vn 0.000000 -0.100000 0.000000
vn 0.000000 -0.100000 0.000000
vn 0.000000 -0.100000 0.000000
vn 0.000000 -0.100000 0.000000
vn 0.000000 -0.100000 0.000000
vn 0.000000 -0.100000 0.000000
vn 0.095106 0.006752 -0.030155
vn 0.095106 0.006752 -0.030155
vn 0.100000 -0.000000 0.000000
vn 0.100000 0.000000 -0.000000
vn 0.095106 -0.006752 0.030155
vn 0.095106 -0.006752 0.030155
vn 0.080902 -0.012843 0.057358
vn 0.080902 -0.012843 0.057358
vn 0.058779 -0.017677 0.078947
vn 0.058779 -0.017677 0.078947
vn 0.030902 -0.020780 0.092808
vn 0.030902 -0.020780 0.092808
vn -0.000000 -0.021850 0.097584
vn 0.000000 -0.021850 0.097584
vn -0.030902 -0.020780 0.092808
vn 0.080902 0.012843 -0.057358
vn 0.080902 0.012843 -0.057358
vn 0.058779 0.017677 -0.078947
vn 0.058779 0.017677 -0.078947
vn 0.030902 0.020780 -0.092808
vn 0.030902 0.020780 -0.092808
vn 0.000000 0.021850 -0.097584
vn 0.000000 0.021850 -0.097584
vn -0.030902 0.020780 -0.092808
vn -0.030902 0.020780 -0.092808
vn -0.058779 0.017677 -0.078947
vn -0.058779 0.017677 -0.078947
vn -0.080902 0.012843 -0.057358
vn -0.080902 0.012843 -0.057358
vn -0.095106 0.006752 -0.030155
vn -0.095106 0.006752 -0.030155
vn -0.100000 -0.000000 0.000000
vn -0.100000 -0.000000 0.000000
vn -0.095106 -0.006752 0.030155
vn -0.095106 -0.006752 0.030155
vn -0.080902 -0.012843 0.057358
vn -0.080902 -0.012843 0.057358
vn -0.058779 -0.017677 0.078947
vn -0.058779 -0.017677 0.078947
vn -0.030902 -0.020780 0.092808
vn -0.030902 0.000000 -0.095106
vn -0.030902 0.000000 -0.095106
vn -0.000000 0.000000 -0.100000
vn -0.000000 0.000000 -0.100000
vn 0.030902 0.000000 -0.095106
vn -0.058779 0.000000 -0.080902
vn -0.058779 0.000000 -0.080902
vn -0.080902 0.000000 -0.058779
vn -0.080902 0.000000 -0.058779
vn -0.095106 0.000000 -0.030902
vn -0.095106 0.000000 -0.030902
vn -0.100000 0.000000 0.000000
vn -0.095106 0.000000 0.030902
vn -0.095106 0.000000 0.030902
vn -0.080902 0.000000 0.058779
vn -0.080902 0.000000 0.058779
vn -0.058779 0.000000 0.080902
vn -0.058779 0.000000 0.080902
vn -0.030902 0.000000 0.095106
vn -0.030902 0.000000 0.095106
vn 0.000000 0.000000 0.100000
vn 0.000000 0.000000 0.100000
vn 0.030902 -0.000000 0.095106
vn 0.030902 -0.000000 0.095106
vn 0.058779 -0.000000 0.080902
vn 0.058779 -0.000000 0.080902
vn 0.080902 -0.000000 0.058779
vn 0.080902 -0.000000 0.058779
vn 0.095106 -0.000000 0.030902
vn 0.095106 -0.000000 0.030902
vn 0.100000 -0.000000 0.000000
vn 0.095106 0.000000 -0.030902
vn 0.095106 0.000000 -0.030902
vn 0.080902 0.000000 -0.058779
vn 0.080902 0.000000 -0.058779
vn 0.058779 0.000000 -0.080902
vn 0.058779 0.000000 -0.080902
vn 0.030902 0.000000 -0.095106
vn 0.000000 0.097584 0.021850
vn 0.000000 0.097584 0.021850
vn 0.000000 0.097584 0.021850
vn 0.000000 0.097584 0.021850
vn 0.000000 0.097584 0.021850
vn 0.000000 0.097584 0.021850
vn 0.000000 0.097584 0.021850
vn 0.000000 0.097584 0.021850
vn 0.000000 0.097584 0.021850
vn 0.000000 0.097584 0.021850
vn 0.000000 0.097584 0.021850
vn 0.000000 0.097584 0.021850
vn 0.000000 0.097584 0.021850
vn 0.000000 0.097584 0.021850
vn 0.000000 0.097584 0.021850
vn 0.000000 0.097584 0.021850
vn 0.000000 0.097584 0.021850
vn 0.000000 0.097584 0.021850
vn 0.000000 0.097584 0.021850
vn 0.000000 0.097584 0.021850
usemtl Plastic_-_Matte_(Red)
f 2/1/1 10/2/2 1/3/3
f 1/3/3 10/2/2 11/4/4
f 1/3/3 11/4/4 20/5/5
f 20/5/5 11/4/4 12/6/6
f 20/5/5 12/6/6 19/7/7
f 19/7/7 12/6/6 13/8/8
f 19/7/7 13/8/8 18/9/9
f 18/9/9 13/8/8 14/10/10
f 18/9/9 14/10/10 17/11/11
f 17/11/11 14/10/10 15/12/12
f 17/11/11 15/12/12 16/13/13
f 10/2/2 2/1/1 9/14/14
f 9/14/14 2/1/1 3/15/15
f 9/14/14 3/15/15 8/16/16
f 8/16/16 3/15/15 4/17/17
f 8/16/16 4/17/17 7/18/18
f 7/18/18 4/17/17 5/19/19
f 7/18/18 5/19/19 6/20/20
f 22/21/21 60/22/22 21/23/23
f 21/23/23 60/22/22 41/24/24
f 21/23/23 41/24/24 40/25/25
f 40/25/25 41/24/24 42/26/26
f 40/25/25 42/26/26 39/27/27
f 39/27/27 42/26/26 43/28/28
f 39/27/27 43/28/28 38/29/29
f 38/29/29 43/28/28 44/30/30
f 38/29/29 44/30/30 37/31/31
f 37/31/31 44/30/30 45/32/32
f 37/31/31 45/32/32 36/33/33
f 36/33/33 45/32/32 46/34/34
f 36/33/33 46/34/34 47/35/35
f 60/22/22 22/21/21 59/36/36
f 59/36/36 22/21/21 23/37/37
f 59/36/36 23/37/37 58/38/38
f 58/38/38 23/37/37 24/39/39
f 58/40/38 24/41/39 57/42/40
f 57/42/40 24/41/39 25/43/41
f 57/42/40 25/43/41 56/44/42
f 56/44/42 25/43/41 26/45/43
f 56/44/42 26/45/43 27/46/44
f 56/44/42 27/46/44 55/47/45
f 55/47/45 27/46/44 28/48/46
f 55/47/45 28/48/46 54/49/47
f 54/49/47 28/48/46 29/50/48
f 54/49/47 29/50/48 53/51/49
f 53/51/49 29/50/48 30/52/50
f 53/51/49 30/52/50 52/53/51
f 52/53/51 30/52/50 31/54/52
f 52/53/51 31/54/52 51/55/53
f 51/55/53 31/54/52 32/56/54
f 51/55/53 32/56/54 50/57/55
f 50/57/55 32/56/54 33/58/56
f 50/57/55 33/58/56 49/59/57
f 49/59/57 33/58/56 34/60/58
f 49/59/57 34/60/58 48/61/59
f 48/61/59 34/60/58 35/62/60
f 48/61/59 35/62/60 47/35/35
f 47/35/35 35/62/60 36/33/33
f 20/63/61 27/64/62 1/65/63
f 1/65/63 27/64/62 26/66/64
f 1/65/63 26/66/64 25/67/65
f 27/64/62 20/63/61 28/68/66
f 28/68/66 20/63/61 19/69/67
f 28/68/66 19/69/67 29/70/68
f 29/70/68 19/69/67 18/71/69
f 29/70/68 18/71/69 30/72/70
f 30/72/70 18/71/69 17/73/71
f 30/72/70 17/73/71 31/74/52
f 31/74/52 17/73/71 16/75/72
f 31/74/52 16/75/72 32/76/73
f 32/76/73 16/75/72 15/77/74
f 32/76/73 15/77/74 33/78/75
f 33/78/75 15/77/74 14/79/76
f 33/78/75 14/79/76 34/80/77
f 34/80/77 14/79/76 13/81/78
f 34/80/77 13/81/78 35/82/79
f 35/82/79 13/81/78 12/83/80
f 35/82/79 12/83/80 36/84/81
f 36/84/81 12/83/80 11/85/82
f 36/84/81 11/85/82 10/86/83
f 36/84/81 10/86/83 37/87/84
f 37/87/84 10/86/83 9/88/85
f 37/87/84 9/88/85 38/89/86
f 38/89/86 9/88/85 8/90/87
f 38/89/86 8/90/87 39/91/88
f 39/91/88 8/90/87 7/92/89
f 39/91/88 7/92/89 40/93/90
f 40/93/90 7/92/89 6/94/91
f 40/93/90 6/94/91 21/95/23
f 21/95/23 6/94/91 5/96/92
f 21/95/23 5/96/92 22/97/93
f 22/97/93 5/96/92 4/98/94
f 22/97/93 4/98/94 23/99/95
f 23/99/95 4/98/94 3/100/96
f 23/99/95 3/100/96 24/101/97
f 24/102/97 3/103/96 2/104/98
f 24/102/97 2/104/98 25/67/65
f 25/67/65 2/104/98 1/65/63
f 41/105/99 60/106/100 42/107/101
f 42/107/101 60/106/100 43/108/102
f 43/108/102 60/106/100 59/109/103
f 43/108/102 59/109/103 44/110/104
f 44/110/104 59/109/103 58/111/105
f 44/110/104 58/111/105 45/112/106
f 45/112/106 58/111/105 57/113/107
f 45/112/106 57/113/107 46/114/108
f 46/114/108 57/113/107 56/115/109
f 46/114/108 56/115/109 47/116/110
f 47/116/110 56/115/109 55/117/111
f 47/116/110 55/117/111 48/118/112
f 48/118/112 55/117/111 54/119/113
f 48/118/112 54/119/113 49/120/114
f 49/120/114 54/119/113 53/121/115
f 49/120/114 53/121/115 50/122/116
f 50/122/116 53/121/115 52/123/117
f 50/122/116 52/123/117 51/124/118
# 60 vertices
# 124 texture params
# 118 normals
# 116 facets

# 1 groups
