# WaveFront *.obj file (generated by Autodesk ATF)

mtllib deagle_main.mtl

g Body1

v 0.214008 0.166782 0.000000
v 0.214008 0.130455 0.000000
v 0.214008 0.130455 0.060000
v 0.214008 0.166782 0.060000
v 0.197636 0.183155 0.000000
v 0.197636 0.183155 0.060000
v 0.165914 0.183155 0.000000
v 0.165914 0.183155 0.060000
v 0.151076 0.174968 0.000000
v 0.151076 0.174968 0.060000
v 0.142122 0.161410 0.000000
v 0.142122 0.161410 0.060000
v 0.142122 0.144270 0.000000
v 0.142122 0.144270 0.060000
v 0.158495 0.128920 0.000000
v 0.158495 0.128920 0.060000
v 0.211450 0.128920 0.000000
v 0.211450 0.128920 0.060000
v 0.126782 0.000000 0.000000
v 0.120625 0.013813 0.000000
v 0.120625 0.013813 0.060000
v 0.126782 0.000000 0.060000
v 0.000000 0.000000 0.000000
v 0.000000 0.000000 0.060000
v 0.000000 0.036775 0.000000
v 0.000000 0.036775 0.060000
v 0.032245 0.130788 0.000000
v 0.032245 0.130788 0.060000
v 0.032245 0.163714 0.000000
v 0.032245 0.163714 0.060000
v 0.007550 0.182343 0.000000
v 0.007550 0.182343 0.060000
v -0.039239 0.182343 0.000000
v -0.039239 0.182343 0.060000
v 0.007550 0.201405 0.000000
v 0.007550 0.201405 0.060000
v 0.461150 0.201405 0.000000
v 0.461150 0.201405 0.060000
v 0.440788 0.191874 0.000000
v 0.440788 0.191874 0.060000
v 0.268359 0.191874 0.000000
v 0.268359 0.191874 0.060000
v 0.227202 0.165013 0.000000
v 0.227202 0.165013 0.060000
v 0.227202 0.122989 0.000000
v 0.227202 0.122989 0.060000
v 0.141421 0.122989 0.000000
v 0.141421 0.122989 0.060000
vt -0.000000 0.000000 0.000000
vt 0.003633 0.000000 0.000000
vt -0.000000 0.006000 0.000000
vt 0.003633 0.006000 0.000000
vt 0.000000 0.000000 0.000000
vt 0.002315 0.000000 0.000000
vt 0.000000 0.006000 0.000000
vt 0.002315 0.006000 0.000000
vt 0.000000 0.000000 0.000000
vt 0.003172 0.000000 0.000000
vt 0.000000 0.006000 0.000000
vt 0.003172 0.006000 0.000000
vt 0.000000 0.000000 0.000000
vt 0.001695 0.000000 0.000000
vt 0.000000 0.006000 0.000000
vt 0.001695 0.006000 0.000000
vt 0.000000 0.000000 0.000000
vt 0.001625 0.000000 0.000000
vt 0.000000 0.006000 0.000000
vt 0.001625 0.006000 0.000000
vt 0.000000 0.000000 0.000000
vt 0.001714 0.000000 0.000000
vt 0.000000 0.006000 0.000000
vt 0.001714 0.006000 0.000000
vt 0.000000 0.000000 0.000000
vt 0.002244 0.000000 0.000000
vt 0.000000 0.006000 0.000000
vt 0.002244 0.006000 0.000000
vt -0.000000 0.000000 0.000000
vt 0.005296 0.000000 0.000000
vt -0.000000 0.006000 0.000000
vt 0.005296 0.006000 0.000000
vt -0.000000 0.000000 0.000000
vt 0.000298 0.000000 0.000000
vt -0.000000 0.006000 0.000000
vt 0.000298 0.006000 0.000000
vt -0.000000 0.000000 0.000000
vt 0.001512 0.000000 0.000000
vt -0.000000 0.006000 0.000000
vt 0.001512 0.006000 0.000000
vt 0.000000 0.000000 0.000000
vt 0.012678 0.000000 0.000000
vt 0.000000 0.006000 0.000000
vt 0.012678 0.006000 0.000000
vt -0.000000 0.000000 0.000000
vt 0.003678 0.000000 0.000000
vt -0.000000 0.006000 0.000000
vt 0.003678 0.006000 0.000000
vt -0.000000 0.000000 0.000000
vt 0.009939 0.000000 0.000000
vt -0.000000 0.006000 0.000000
vt 0.009939 0.006000 0.000000
vt -0.000000 0.000000 0.000000
vt 0.003293 0.000000 0.000000
vt -0.000000 0.006000 0.000000
vt 0.003293 0.006000 0.000000
vt 0.000000 0.000000 0.000000
vt 0.003093 0.000000 0.000000
vt 0.000000 0.006000 0.000000
vt 0.003093 0.006000 0.000000
vt 0.000000 0.000000 0.000000
vt 0.004679 0.000000 0.000000
vt 0.000000 0.006000 0.000000
vt 0.004679 0.006000 0.000000
vt -0.000000 0.000000 0.000000
vt 0.005052 0.000000 0.000000
vt -0.000000 0.006000 0.000000
vt 0.005052 0.006000 0.000000
vt -0.000000 0.000000 0.000000
vt 0.045360 0.000000 0.000000
vt -0.000000 0.006000 0.000000
vt 0.045360 0.006000 0.000000
vt 0.000000 0.000000 0.000000
vt 0.002248 0.000000 0.000000
vt 0.000000 0.006000 0.000000
vt 0.002248 0.006000 0.000000
vt 0.000000 0.000000 0.000000
vt 0.017243 0.000000 0.000000
vt 0.000000 0.006000 0.000000
vt 0.017243 0.006000 0.000000
vt 0.000000 0.000000 0.000000
vt 0.004915 0.000000 0.000000
vt 0.000000 0.006000 0.000000
vt 0.004915 0.006000 0.000000
vt 0.000000 0.000000 0.000000
vt 0.004202 0.000000 0.000000
vt 0.000000 0.006000 0.000000
vt 0.004202 0.006000 0.000000
vt 0.000000 0.000000 0.000000
vt 0.008578 0.000000 0.000000
vt 0.000000 0.006000 0.000000
vt 0.008578 0.006000 0.000000
vt 0.000000 0.000000 0.000000
vt 0.011114 0.000000 0.000000
vt 0.000000 0.006000 0.000000
vt 0.011114 0.006000 0.000000
vt 0.000049 0.002822 0.000000
vt 0.001625 0.002229 0.000000
vt 0.000305 0.002975 0.000000
vt 0.001625 0.006431 0.000000
vt 0.000305 0.006608 0.000000
vt -0.001332 0.008245 0.000000
vt 0.005740 0.009117 0.000000
vt -0.004504 0.008245 0.000000
vt -0.020341 0.010070 0.000000
vt -0.005988 0.007427 0.000000
vt -0.020341 0.008164 0.000000
vt -0.017871 0.006301 0.000000
vt -0.005246 0.002822 0.000000
vt -0.006953 0.002229 0.000000
vt -0.006883 0.004357 0.000000
vt -0.017871 0.003008 0.000000
vt -0.006883 0.006071 0.000000
vt -0.021096 -0.006393 0.000000
vt -0.009033 -0.008689 0.000000
vt -0.021096 -0.010070 0.000000
vt -0.008417 -0.010070 0.000000
vt 0.022983 0.009117 0.000000
vt 0.025019 0.010070 0.000000
vt -0.025019 0.008164 0.000000
vt 0.005246 0.002822 0.000000
vt -0.000049 0.002822 0.000000
vt -0.001625 0.002229 0.000000
vt -0.000305 0.002975 0.000000
vt -0.001625 0.006431 0.000000
vt -0.000305 0.006608 0.000000
vt 0.001332 0.008245 0.000000
vt -0.005740 0.009117 0.000000
vt 0.004504 0.008245 0.000000
vt 0.020341 0.010070 0.000000
vt 0.005988 0.007427 0.000000
vt 0.020341 0.008164 0.000000
vt 0.017871 0.006301 0.000000
vt 0.006883 0.006071 0.000000
vt 0.006883 0.004357 0.000000
vt 0.006953 0.002229 0.000000
vt 0.017871 0.003008 0.000000
vt 0.021096 -0.006393 0.000000
vt 0.009033 -0.008689 0.000000
vt 0.021096 -0.010070 0.000000
vt 0.008417 -0.010070 0.000000
vt 0.025019 0.008164 0.000000
vt -0.025019 0.010070 0.000000
vt -0.022983 0.009117 0.000000
vn -0.100000 0.000000 0.000000
vn -0.100000 0.000000 0.000000
vn -0.100000 0.000000 0.000000
vn -0.100000 0.000000 0.000000
vn -0.070711 -0.070711 0.000000
vn -0.070711 -0.070711 0.000000
vn -0.070711 -0.070711 0.000000
vn -0.070711 -0.070711 0.000000
vn 0.000000 -0.100000 0.000000
vn 0.000000 -0.100000 0.000000
vn 0.000000 -0.100000 0.000000
vn 0.000000 -0.100000 0.000000
vn 0.048308 -0.087558 0.000000
vn 0.048308 -0.087558 0.000000
vn 0.048308 -0.087558 0.000000
vn 0.048308 -0.087558 0.000000
vn 0.083446 -0.055106 0.000000
vn 0.083446 -0.055106 0.000000
vn 0.083446 -0.055106 0.000000
vn 0.083446 -0.055106 0.000000
vn 0.100000 0.000000 0.000000
vn 0.100000 0.000000 0.000000
vn 0.100000 0.000000 0.000000
vn 0.100000 0.000000 0.000000
vn 0.068394 0.072954 0.000000
vn 0.068394 0.072954 0.000000
vn 0.068394 0.072954 0.000000
vn 0.068394 0.072954 0.000000
vn 0.000000 0.100000 0.000000
vn 0.000000 0.100000 0.000000
vn 0.000000 0.100000 0.000000
vn 0.000000 0.100000 0.000000
vn -0.051450 0.085749 0.000000
vn -0.051450 0.085749 0.000000
vn -0.051450 0.085749 0.000000
vn -0.051450 0.085749 0.000000
vn 0.091339 0.040709 0.000000
vn 0.091339 0.040709 0.000000
vn 0.091339 0.040709 0.000000
vn 0.091339 0.040709 0.000000
vn 0.000000 -0.100000 0.000000
vn 0.000000 -0.100000 0.000000
vn 0.000000 -0.100000 0.000000
vn 0.000000 -0.100000 0.000000
vn -0.100000 0.000000 0.000000
vn -0.100000 0.000000 0.000000
vn -0.100000 0.000000 0.000000
vn -0.100000 0.000000 0.000000
vn -0.094591 0.032443 0.000000
vn -0.094591 0.032443 0.000000
vn -0.094591 0.032443 0.000000
vn -0.094591 0.032443 0.000000
vn -0.100000 0.000000 0.000000
vn -0.100000 0.000000 0.000000
vn -0.100000 0.000000 0.000000
vn -0.100000 0.000000 0.000000
vn -0.060224 -0.079832 0.000000
vn -0.060224 -0.079832 0.000000
vn -0.060224 -0.079832 0.000000
vn -0.060224 -0.079832 0.000000
vn 0.000000 -0.100000 0.000000
vn 0.000000 -0.100000 0.000000
vn 0.000000 -0.100000 0.000000
vn 0.000000 -0.100000 0.000000
vn -0.037730 0.092609 0.000000
vn -0.037730 0.092609 0.000000
vn -0.037730 0.092609 0.000000
vn -0.037730 0.092609 0.000000
vn 0.000000 0.100000 0.000000
vn 0.000000 0.100000 0.000000
vn 0.000000 0.100000 0.000000
vn 0.000000 0.100000 0.000000
vn 0.042394 -0.090569 0.000000
vn 0.042394 -0.090569 0.000000
vn 0.042394 -0.090569 0.000000
vn 0.042394 -0.090569 0.000000
vn 0.000000 -0.100000 0.000000
vn 0.000000 -0.100000 0.000000
vn 0.000000 -0.100000 0.000000
vn 0.000000 -0.100000 0.000000
vn 0.054654 -0.083744 0.000000
vn 0.054654 -0.083744 0.000000
vn 0.054654 -0.083744 0.000000
vn 0.054654 -0.083744 0.000000
vn 0.100000 0.000000 0.000000
vn 0.100000 0.000000 0.000000
vn 0.100000 0.000000 0.000000
vn 0.100000 0.000000 0.000000
vn 0.000000 -0.100000 0.000000
vn 0.000000 -0.100000 0.000000
vn 0.000000 -0.100000 0.000000
vn 0.000000 -0.100000 0.000000
vn 0.098234 -0.018711 0.000000
vn 0.098234 -0.018711 0.000000
vn 0.098234 -0.018711 0.000000
vn 0.098234 -0.018711 0.000000
vn 0.000000 0.000000 0.100000
vn 0.000000 0.000000 0.100000
vn 0.000000 0.000000 0.100000
vn 0.000000 0.000000 0.100000
vn 0.000000 0.000000 0.100000
vn 0.000000 0.000000 0.100000
vn 0.000000 0.000000 0.100000
vn 0.000000 0.000000 0.100000
vn 0.000000 0.000000 0.100000
vn 0.000000 0.000000 0.100000
vn 0.000000 0.000000 0.100000
vn 0.000000 0.000000 0.100000
vn 0.000000 0.000000 0.100000
vn 0.000000 0.000000 0.100000
vn 0.000000 0.000000 0.100000
vn 0.000000 0.000000 0.100000
vn 0.000000 0.000000 0.100000
vn 0.000000 0.000000 0.100000
vn 0.000000 0.000000 0.100000
vn 0.000000 0.000000 0.100000
vn 0.000000 0.000000 0.100000
vn 0.000000 0.000000 0.100000
vn 0.000000 0.000000 0.100000
vn 0.000000 0.000000 0.100000
vn 0.000000 0.000000 -0.100000
vn 0.000000 0.000000 -0.100000
vn 0.000000 0.000000 -0.100000
vn 0.000000 0.000000 -0.100000
vn 0.000000 0.000000 -0.100000
vn 0.000000 0.000000 -0.100000
vn 0.000000 0.000000 -0.100000
vn 0.000000 0.000000 -0.100000
vn 0.000000 0.000000 -0.100000
vn 0.000000 0.000000 -0.100000
vn 0.000000 0.000000 -0.100000
vn 0.000000 0.000000 -0.100000
vn 0.000000 0.000000 -0.100000
vn 0.000000 0.000000 -0.100000
vn 0.000000 0.000000 -0.100000
vn 0.000000 0.000000 -0.100000
vn 0.000000 0.000000 -0.100000
vn 0.000000 0.000000 -0.100000
vn 0.000000 0.000000 -0.100000
vn 0.000000 0.000000 -0.100000
vn 0.000000 0.000000 -0.100000
vn 0.000000 0.000000 -0.100000
vn 0.000000 0.000000 -0.100000
vn 0.000000 0.000000 -0.100000
usemtl Steel_-_Satin
f 1/1/1 2/2/2 4/3/3
f 4/3/3 2/2/2 3/4/4
f 5/5/5 1/6/6 6/7/7
f 6/7/7 1/6/6 4/8/8
f 7/9/9 5/10/10 8/11/11
f 8/11/11 5/10/10 6/12/12
f 9/13/13 7/14/14 10/15/15
f 10/15/15 7/14/14 8/16/16
f 11/17/17 9/18/18 12/19/19
f 12/19/19 9/18/18 10/20/20
f 13/21/21 11/22/22 14/23/23
f 14/23/23 11/22/22 12/24/24
f 15/25/25 13/26/26 16/27/27
f 16/27/27 13/26/26 14/28/28
f 17/29/29 15/30/30 18/31/31
f 18/31/31 15/30/30 16/32/32
f 2/33/33 17/34/34 3/35/35
f 3/35/35 17/34/34 18/36/36
f 19/37/37 20/38/38 22/39/39
f 22/39/39 20/38/38 21/40/40
f 23/41/41 19/42/42 24/43/43
f 24/43/43 19/42/42 22/44/44
f 25/45/45 23/46/46 26/47/47
f 26/47/47 23/46/46 24/48/48
f 27/49/49 25/50/50 28/51/51
f 28/51/51 25/50/50 26/52/52
f 29/53/53 27/54/54 30/55/55
f 30/55/55 27/54/54 28/56/56
f 31/57/57 29/58/58 32/59/59
f 32/59/59 29/58/58 30/60/60
f 33/61/61 31/62/62 34/63/63
f 34/63/63 31/62/62 32/64/64
f 35/65/65 33/66/66 36/67/67
f 36/67/67 33/66/66 34/68/68
f 37/69/69 35/70/70 38/71/71
f 38/71/71 35/70/70 36/72/72
f 39/73/73 37/74/74 40/75/75
f 40/75/75 37/74/74 38/76/76
f 41/77/77 39/78/78 42/79/79
f 42/79/79 39/78/78 40/80/80
f 43/81/81 41/82/82 44/83/83
f 44/83/83 41/82/82 42/84/84
f 45/85/85 43/86/86 46/87/87
f 46/87/87 43/86/86 44/88/88
f 47/89/89 45/90/90 48/91/91
f 48/91/91 45/90/90 46/92/92
f 20/93/93 47/94/94 21/95/95
f 21/95/95 47/94/94 48/96/96
f 18/97/97 46/98/98 3/99/99
f 3/99/99 46/98/98 44/100/100
f 3/99/99 44/100/100 4/101/101
f 4/101/101 44/100/100 6/102/102
f 6/102/102 44/100/100 42/103/103
f 6/102/102 42/103/103 8/104/104
f 8/104/104 42/103/103 36/105/105
f 8/104/104 36/105/105 10/106/106
f 10/106/106 36/105/105 32/107/107
f 10/106/106 32/107/107 30/108/108
f 18/97/97 16/109/109 46/98/98
f 46/98/98 16/109/109 48/110/110
f 48/110/110 16/109/109 14/111/111
f 48/110/110 14/111/111 28/112/112
f 28/112/112 14/111/111 30/108/108
f 30/108/108 14/111/111 12/113/113
f 30/108/108 12/113/113 10/106/106
f 48/110/110 26/114/114 21/115/115
f 21/115/115 26/114/114 24/116/116
f 21/115/115 24/116/116 22/117/117
f 40/118/118 38/119/119 42/103/103
f 42/103/103 38/119/119 36/105/105
f 36/105/105 34/120/120 32/107/107
f 28/112/112 26/114/114 48/110/110
f 15/121/121 17/122/122 45/123/123
f 45/123/123 17/122/122 2/124/124
f 45/123/123 2/124/124 43/125/125
f 43/125/125 2/124/124 1/126/126
f 43/125/125 1/126/126 5/127/127
f 43/125/125 5/127/127 41/128/128
f 41/128/128 5/127/127 7/129/129
f 41/128/128 7/129/129 35/130/130
f 35/130/130 7/129/129 9/131/131
f 35/130/130 9/131/131 31/132/132
f 31/132/132 9/131/131 29/133/133
f 29/133/133 9/131/131 11/134/134
f 29/133/133 11/134/134 13/135/135
f 15/121/121 47/136/136 13/135/135
f 13/135/135 47/136/136 27/137/137
f 13/135/135 27/137/137 29/133/133
f 47/136/136 15/121/121 45/123/123
f 27/137/137 47/136/136 25/138/138
f 25/138/138 47/136/136 20/139/139
f 25/138/138 20/139/139 23/140/140
f 23/140/140 20/139/139 19/141/141
f 31/132/132 33/142/142 35/130/130
f 35/130/130 37/143/143 41/128/128
f 41/128/128 37/143/143 39/144/144
# 48 vertices
# 144 texture params
# 144 normals
# 96 facets

# 1 groups
