# WaveFront *.obj file (generated by Autodesk ATF)

mtllib deagle_slide.mtl

g Body2

v 0.018254 0.249583 0.000000
v 0.007550 0.201405 0.000000
v 0.007550 0.201405 0.060000
v 0.018254 0.249583 0.060000
v 0.039624 0.270517 0.000000
v 0.039624 0.270517 0.060000
v 0.085851 0.270517 0.000000
v 0.085851 0.270517 0.060000
v 0.098305 0.275590 0.000000
v 0.098305 0.275590 0.060000
v 0.261604 0.275590 0.000000
v 0.261604 0.275590 0.060000
v 0.274251 0.270517 0.000000
v 0.274251 0.270517 0.060000
v 0.470065 0.270517 0.000000
v 0.470065 0.270517 0.060000
v 0.470065 0.222108 0.000000
v 0.470065 0.222108 0.060000
v 0.461150 0.201405 0.000000
v 0.461150 0.201405 0.060000
vt -0.000000 0.000000 0.000000
vt 0.004935 0.000000 0.000000
vt -0.000000 0.006000 0.000000
vt 0.004935 0.006000 0.000000
vt -0.000000 0.000000 0.000000
vt 0.002991 0.000000 0.000000
vt -0.000000 0.006000 0.000000
vt 0.002991 0.006000 0.000000
vt -0.000000 0.000000 0.000000
vt 0.004623 0.000000 0.000000
vt -0.000000 0.006000 0.000000
vt 0.004623 0.006000 0.000000
vt -0.000000 0.000000 0.000000
vt 0.001345 0.000000 0.000000
vt -0.000000 0.006000 0.000000
vt 0.001345 0.006000 0.000000
vt -0.000000 0.000000 0.000000
vt 0.016330 0.000000 0.000000
vt -0.000000 0.006000 0.000000
vt 0.016330 0.006000 0.000000
vt 0.000000 0.000000 0.000000
vt 0.001363 0.000000 0.000000
vt 0.000000 0.006000 0.000000
vt 0.001363 0.006000 0.000000
vt -0.000000 0.000000 0.000000
vt 0.019581 0.000000 0.000000
vt -0.000000 0.006000 0.000000
vt 0.019581 0.006000 0.000000
vt 0.000000 0.000000 0.000000
vt 0.004841 0.000000 0.000000
vt 0.000000 0.006000 0.000000
vt 0.004841 0.006000 0.000000
vt 0.000000 0.000000 0.000000
vt 0.002254 0.000000 0.000000
vt 0.000000 0.006000 0.000000
vt 0.002254 0.006000 0.000000
vt 0.000000 0.000000 0.000000
vt 0.045360 0.000000 0.000000
vt 0.000000 0.006000 0.000000
vt 0.045360 0.006000 0.000000
vt 0.022234 -0.003709 0.000000
vt 0.023126 -0.001639 0.000000
vt -0.023126 -0.003709 0.000000
vt -0.022055 0.001109 0.000000
vt 0.003544 0.003202 0.000000
vt -0.015296 0.003202 0.000000
vt 0.002280 0.003709 0.000000
vt -0.014050 0.003709 0.000000
vt 0.023126 0.003202 0.000000
vt -0.019918 0.003202 0.000000
vt -0.022234 -0.003709 0.000000
vt 0.023126 -0.003709 0.000000
vt -0.023126 -0.001639 0.000000
vt 0.022055 0.001109 0.000000
vt -0.003544 0.003202 0.000000
vt 0.015296 0.003202 0.000000
vt -0.002280 0.003709 0.000000
vt 0.014050 0.003709 0.000000
vt 0.019918 0.003202 0.000000
vt -0.023126 0.003202 0.000000
vn -0.097620 0.021689 0.000000
vn -0.097620 0.021689 0.000000
vn -0.097620 0.021689 0.000000
vn -0.097620 0.021689 0.000000
vn -0.069978 0.071436 0.000000
vn -0.069978 0.071436 0.000000
vn -0.069978 0.071436 0.000000
vn -0.069978 0.071436 0.000000
vn 0.000000 0.100000 0.000000
vn 0.000000 0.100000 0.000000
vn 0.000000 0.100000 0.000000
vn 0.000000 0.100000 0.000000
vn -0.037730 0.092609 0.000000
vn -0.037730 0.092609 0.000000
vn -0.037730 0.092609 0.000000
vn -0.037730 0.092609 0.000000
vn 0.000000 0.100000 0.000000
vn 0.000000 0.100000 0.000000
vn 0.000000 0.100000 0.000000
vn 0.000000 0.100000 0.000000
vn 0.037233 0.092810 0.000000
vn 0.037233 0.092810 0.000000
vn 0.037233 0.092810 0.000000
vn 0.037233 0.092810 0.000000
vn 0.000000 0.100000 0.000000
vn 0.000000 0.100000 0.000000
vn 0.000000 0.100000 0.000000
vn 0.000000 0.100000 0.000000
vn 0.100000 0.000000 0.000000
vn 0.100000 0.000000 0.000000
vn 0.100000 0.000000 0.000000
vn 0.100000 0.000000 0.000000
vn 0.091847 -0.039548 0.000000
vn 0.091847 -0.039548 0.000000
vn 0.091847 -0.039548 0.000000
vn 0.091847 -0.039548 0.000000
vn 0.000000 -0.100000 0.000000
vn 0.000000 -0.100000 0.000000
vn 0.000000 -0.100000 0.000000
vn 0.000000 -0.100000 0.000000
vn 0.000000 0.000000 0.100000
vn 0.000000 0.000000 0.100000
vn 0.000000 0.000000 0.100000
vn 0.000000 0.000000 0.100000
vn 0.000000 0.000000 0.100000
vn 0.000000 0.000000 0.100000
vn 0.000000 0.000000 0.100000
vn 0.000000 0.000000 0.100000
vn 0.000000 0.000000 0.100000
vn 0.000000 0.000000 0.100000
vn 0.000000 0.000000 -0.100000
vn 0.000000 0.000000 -0.100000
vn 0.000000 0.000000 -0.100000
vn 0.000000 0.000000 -0.100000
vn 0.000000 0.000000 -0.100000
vn 0.000000 0.000000 -0.100000
vn 0.000000 0.000000 -0.100000
vn 0.000000 0.000000 -0.100000
vn 0.000000 0.000000 -0.100000
vn 0.000000 0.000000 -0.100000
usemtl Steel_-_Satin
f 1/1/1 2/2/2 4/3/3
f 4/3/3 2/2/2 3/4/4
f 5/5/5 1/6/6 6/7/7
f 6/7/7 1/6/6 4/8/8
f 7/9/9 5/10/10 8/11/11
f 8/11/11 5/10/10 6/12/12
f 9/13/13 7/14/14 10/15/15
f 10/15/15 7/14/14 8/16/16
f 11/17/17 9/18/18 12/19/19
f 12/19/19 9/18/18 10/20/20
f 13/21/21 11/22/22 14/23/23
f 14/23/23 11/22/22 12/24/24
f 15/25/25 13/26/26 16/27/27
f 16/27/27 13/26/26 14/28/28
f 17/29/29 15/30/30 18/31/31
f 18/31/31 15/30/30 16/32/32
f 19/33/33 17/34/34 20/35/35
f 20/35/35 17/34/34 18/36/36
f 2/37/37 19/38/38 3/39/39
f 3/39/39 19/38/38 20/40/40
f 20/41/41 18/42/42 3/43/43
f 3/43/43 18/42/42 4/44/44
f 4/44/44 18/42/42 14/45/45
f 4/44/44 14/45/45 8/46/46
f 8/46/46 14/45/45 12/47/47
f 8/46/46 12/47/47 10/48/48
f 18/42/42 16/49/49 14/45/45
f 8/46/46 6/50/50 4/44/44
f 19/51/51 2/52/52 17/53/53
f 17/53/53 2/52/52 1/54/54
f 17/53/53 1/54/54 13/55/55
f 13/55/55 1/54/54 7/56/56
f 13/55/55 7/56/56 11/57/57
f 11/57/57 7/56/56 9/58/58
f 1/54/54 5/59/59 7/56/56
f 13/55/55 15/60/60 17/53/53
# 20 vertices
# 60 texture params
# 60 normals
# 36 facets

# 1 groups
