# WaveFront *.res file (generated by Autodesk ATF)

mtllib deagle_slide.mtl

g Body2

v 0.060848 0.831945 0.000000
v 0.025168 0.671351 0.000000
v 0.025168 0.671351 0.200000
v 0.060848 0.831945 0.200000
v 0.132079 0.901722 0.000000
v 0.132079 0.901722 0.200000
v 0.286172 0.901722 0.000000
v 0.286172 0.901722 0.200000
v 0.327684 0.918635 0.000000
v 0.327684 0.918635 0.200000
v 0.872013 0.918635 0.000000
v 0.872013 0.918635 0.200000
v 0.914170 0.901722 0.000000
v 0.914170 0.901722 0.200000
v 1.566882 0.901722 0.000000
v 1.566882 0.901722 0.200000
v 1.566882 0.740362 0.000000
v 1.566882 0.740362 0.200000
v 1.537167 0.671351 0.000000
v 1.537167 0.671351 0.200000
vt -0.000000 0.000000 0.000000
vt 0.016451 0.000000 0.000000
vt -0.000000 0.020000 0.000000
vt 0.016451 0.020000 0.000000
vt -0.000000 0.000000 0.000000
vt 0.009971 0.000000 0.000000
vt -0.000000 0.020000 0.000000
vt 0.009971 0.020000 0.000000
vt -0.000000 0.000000 0.000000
vt 0.015409 0.000000 0.000000
vt -0.000000 0.020000 0.000000
vt 0.015409 0.020000 0.000000
vt -0.000000 0.000000 0.000000
vt 0.004483 0.000000 0.000000
vt -0.000000 0.020000 0.000000
vt 0.004483 0.020000 0.000000
vt -0.000000 0.000000 0.000000
vt 0.054433 0.000000 0.000000
vt -0.000000 0.020000 0.000000
vt 0.054433 0.020000 0.000000
vt 0.000000 0.000000 0.000000
vt 0.004542 0.000000 0.000000
vt 0.000000 0.020000 0.000000
vt 0.004542 0.020000 0.000000
vt -0.000000 0.000000 0.000000
vt 0.065271 0.000000 0.000000
vt -0.000000 0.020000 0.000000
vt 0.065271 0.020000 0.000000
vt 0.000000 0.000000 0.000000
vt 0.016136 0.000000 0.000000
vt 0.000000 0.020000 0.000000
vt 0.016136 0.020000 0.000000
vt 0.000000 0.000000 0.000000
vt 0.007514 0.000000 0.000000
vt 0.000000 0.020000 0.000000
vt 0.007514 0.020000 0.000000
vt 0.000000 0.000000 0.000000
vt 0.151200 0.000000 0.000000
vt 0.000000 0.020000 0.000000
vt 0.151200 0.020000 0.000000
vt 0.074114 -0.012364 0.000000
vt 0.077086 -0.005463 0.000000
vt -0.077086 -0.012364 0.000000
vt -0.073518 0.003695 0.000000
vt 0.011815 0.010673 0.000000
vt -0.050985 0.010673 0.000000
vt 0.007599 0.012364 0.000000
vt -0.046834 0.012364 0.000000
vt 0.077086 0.010673 0.000000
vt -0.066395 0.010673 0.000000
vt -0.074114 -0.012364 0.000000
vt 0.077086 -0.012364 0.000000
vt -0.077086 -0.005463 0.000000
vt 0.073518 0.003695 0.000000
vt -0.011815 0.010673 0.000000
vt 0.050985 0.010673 0.000000
vt -0.007599 0.012364 0.000000
vt 0.046834 0.012364 0.000000
vt 0.066395 0.010673 0.000000
vt -0.077086 0.010673 0.000000
vn -0.097620 0.021689 0.000000
vn -0.097620 0.021689 0.000000
vn -0.097620 0.021689 0.000000
vn -0.097620 0.021689 0.000000
vn -0.069978 0.071436 0.000000
vn -0.069978 0.071436 0.000000
vn -0.069978 0.071436 0.000000
vn -0.069978 0.071436 0.000000
vn 0.000000 0.100000 0.000000
vn 0.000000 0.100000 0.000000
vn 0.000000 0.100000 0.000000
vn 0.000000 0.100000 0.000000
vn -0.037730 0.092609 0.000000
vn -0.037730 0.092609 0.000000
vn -0.037730 0.092609 0.000000
vn -0.037730 0.092609 0.000000
vn 0.000000 0.100000 0.000000
vn 0.000000 0.100000 0.000000
vn 0.000000 0.100000 0.000000
vn 0.000000 0.100000 0.000000
vn 0.037233 0.092810 0.000000
vn 0.037233 0.092810 0.000000
vn 0.037233 0.092810 0.000000
vn 0.037233 0.092810 0.000000
vn 0.000000 0.100000 0.000000
vn 0.000000 0.100000 0.000000
vn 0.000000 0.100000 0.000000
vn 0.000000 0.100000 0.000000
vn 0.100000 0.000000 0.000000
vn 0.100000 0.000000 0.000000
vn 0.100000 0.000000 0.000000
vn 0.100000 0.000000 0.000000
vn 0.091847 -0.039548 0.000000
vn 0.091847 -0.039548 0.000000
vn 0.091847 -0.039548 0.000000
vn 0.091847 -0.039548 0.000000
vn 0.000000 -0.100000 0.000000
vn 0.000000 -0.100000 0.000000
vn 0.000000 -0.100000 0.000000
vn 0.000000 -0.100000 0.000000
vn 0.000000 0.000000 0.100000
vn 0.000000 0.000000 0.100000
vn 0.000000 0.000000 0.100000
vn 0.000000 0.000000 0.100000
vn 0.000000 0.000000 0.100000
vn 0.000000 0.000000 0.100000
vn 0.000000 0.000000 0.100000
vn 0.000000 0.000000 0.100000
vn 0.000000 0.000000 0.100000
vn 0.000000 0.000000 0.100000
vn 0.000000 0.000000 -0.100000
vn 0.000000 0.000000 -0.100000
vn 0.000000 0.000000 -0.100000
vn 0.000000 0.000000 -0.100000
vn 0.000000 0.000000 -0.100000
vn 0.000000 0.000000 -0.100000
vn 0.000000 0.000000 -0.100000
vn 0.000000 0.000000 -0.100000
vn 0.000000 0.000000 -0.100000
vn 0.000000 0.000000 -0.100000
usemtl Steel_-_Satin
f 1/1/1 2/2/2 4/3/3
f 4/3/3 2/2/2 3/4/4
f 5/5/5 1/6/6 6/7/7
f 6/7/7 1/6/6 4/8/8
f 7/9/9 5/10/10 8/11/11
f 8/11/11 5/10/10 6/12/12
f 9/13/13 7/14/14 10/15/15
f 10/15/15 7/14/14 8/16/16
f 11/17/17 9/18/18 12/19/19
f 12/19/19 9/18/18 10/20/20
f 13/21/21 11/22/22 14/23/23
f 14/23/23 11/22/22 12/24/24
f 15/25/25 13/26/26 16/27/27
f 16/27/27 13/26/26 14/28/28
f 17/29/29 15/30/30 18/31/31
f 18/31/31 15/30/30 16/32/32
f 19/33/33 17/34/34 20/35/35
f 20/35/35 17/34/34 18/36/36
f 2/37/37 19/38/38 3/39/39
f 3/39/39 19/38/38 20/40/40
f 20/41/41 18/42/42 3/43/43
f 3/43/43 18/42/42 4/44/44
f 4/44/44 18/42/42 14/45/45
f 4/44/44 14/45/45 8/46/46
f 8/46/46 14/45/45 12/47/47
f 8/46/46 12/47/47 10/48/48
f 18/42/42 16/49/49 14/45/45
f 8/46/46 6/50/50 4/44/44
f 19/51/51 2/52/52 17/53/53
f 17/53/53 2/52/52 1/54/54
f 17/53/53 1/54/54 13/55/55
f 13/55/55 1/54/54 7/56/56
f 13/55/55 7/56/56 11/57/57
f 11/57/57 7/56/56 9/58/58
f 1/54/54 5/59/59 7/56/56
f 13/55/55 15/60/60 17/53/53
# 20 vertices
# 60 texture params
# 60 normals
# 36 facets

# 1 groups
