# WaveFront *.res file (generated by Autodesk ATF)

mtllib model.mtl

g Body1

v 5.000000 5.000000 1.000000
v 0.000000 5.000000 1.000000
v 0.000000 5.000000 10.000000
v 5.000000 5.000000 10.000000
v 5.000000 0.000000 1.000000
v 5.000000 0.000000 10.000000
v 0.000000 0.000000 10.000000
v 10.000000 10.000000 0.000000
v 0.000000 10.000000 0.000000
v 0.000000 10.000000 1.000000
v 10.000000 10.000000 1.000000
v 10.000000 0.000000 0.000000
v 10.000000 0.000000 1.000000
v 0.000000 0.000000 0.000000
vt 0.000000 0.000000 0.000000
vt 5.000000 0.000000 0.000000
vt 0.000000 9.000000 0.000000
vt 5.000000 9.000000 0.000000
vt 0.000000 0.000000 0.000000
vt 5.000000 0.000000 0.000000
vt 0.000000 9.000000 0.000000
vt 5.000000 9.000000 0.000000
vt -2.500000 -2.500000 0.000000
vt 2.500000 -2.500000 0.000000
vt -2.500000 2.500000 0.000000
vt 2.500000 2.500000 0.000000
vt 0.000000 0.000000 0.000000
vt 10.000000 0.000000 0.000000
vt 0.000000 1.000000 0.000000
vt 10.000000 1.000000 0.000000
vt 0.000000 0.000000 0.000000
vt 10.000000 0.000000 0.000000
vt 0.000000 1.000000 0.000000
vt 10.000000 1.000000 0.000000
vt 0.000000 10.000000 0.000000
vt 0.000000 0.000000 0.000000
vt 5.000000 1.000000 0.000000
vt 10.000000 0.000000 0.000000
vt 10.000000 1.000000 0.000000
vt 5.000000 10.000000 0.000000
vt 0.000000 1.000000 0.000000
vt 0.000000 0.000000 0.000000
vt 5.000000 1.000000 0.000000
vt 10.000000 0.000000 0.000000
vt 10.000000 10.000000 0.000000
vt 5.000000 10.000000 0.000000
vt 0.000000 -5.000000 0.000000
vt 5.000000 -5.000000 0.000000
vt 0.000000 0.000000 0.000000
vt 5.000000 5.000000 0.000000
vt -5.000000 5.000000 0.000000
vt -5.000000 0.000000 0.000000
vt 5.000000 5.000000 0.000000
vt -5.000000 5.000000 0.000000
vt 5.000000 -5.000000 0.000000
vt -5.000000 -5.000000 0.000000
vn 0.000000 1.000000 -0.000000
vn 0.000000 1.000000 -0.000000
vn 0.000000 1.000000 -0.000000
vn 0.000000 1.000000 -0.000000
vn 1.000000 0.000000 0.000000
vn 1.000000 0.000000 0.000000
vn 1.000000 0.000000 0.000000
vn 1.000000 0.000000 0.000000
vn 0.000000 0.000000 1.000000
vn 0.000000 0.000000 1.000000
vn 0.000000 0.000000 1.000000
vn 0.000000 0.000000 1.000000
vn 0.000000 1.000000 -0.000000
vn 0.000000 1.000000 -0.000000
vn 0.000000 1.000000 -0.000000
vn 0.000000 1.000000 -0.000000
vn 1.000000 0.000000 0.000000
vn 1.000000 0.000000 0.000000
vn 1.000000 0.000000 0.000000
vn 1.000000 0.000000 0.000000
vn 0.000000 -1.000000 0.000000
vn 0.000000 -1.000000 0.000000
vn 0.000000 -1.000000 0.000000
vn 0.000000 -1.000000 0.000000
vn 0.000000 -1.000000 0.000000
vn 0.000000 -1.000000 0.000000
vn -1.000000 0.000000 0.000000
vn -1.000000 0.000000 0.000000
vn -1.000000 0.000000 0.000000
vn -1.000000 0.000000 0.000000
vn -1.000000 0.000000 0.000000
vn -1.000000 0.000000 0.000000
vn 0.000000 0.000000 1.000000
vn 0.000000 0.000000 1.000000
vn 0.000000 0.000000 1.000000
vn 0.000000 0.000000 1.000000
vn 0.000000 0.000000 1.000000
vn 0.000000 0.000000 1.000000
vn -0.000000 -0.000000 -1.000000
vn -0.000000 -0.000000 -1.000000
vn -0.000000 -0.000000 -1.000000
vn -0.000000 -0.000000 -1.000000
usemtl Steel_-_Satin
f 1/1/1 2/2/2 4/3/3
f 4/3/3 2/2/2 3/4/4
f 5/5/5 1/6/6 6/7/7
f 6/7/7 1/6/6 4/8/8
f 7/9/9 6/10/10 3/11/11
f 3/11/11 6/10/10 4/12/12
f 8/13/13 9/14/14 11/15/15
f 11/15/15 9/14/14 10/16/16
f 12/17/17 8/18/18 13/19/19
f 13/19/19 8/18/18 11/20/20
f 7/21/21 14/22/22 5/23/23
f 5/23/23 14/22/22 12/24/24
f 5/23/23 12/24/24 13/25/25
f 5/23/23 6/26/26 7/21/21
f 10/27/27 9/28/28 2/29/29
f 2/29/29 9/28/28 14/30/30
f 2/29/29 14/30/30 7/31/31
f 7/31/31 3/32/32 2/29/29
f 5/33/33 13/34/34 1/35/35
f 1/35/35 13/34/34 11/36/36
f 1/35/35 11/36/36 10/37/37
f 10/37/37 2/38/38 1/35/35
f 9/39/39 8/40/40 14/41/41
f 14/41/41 8/40/40 12/42/42
# 14 vertices
# 42 texture params
# 42 normals
# 24 facets

# 1 groups
