# WaveFront *.res file (generated by Autodesk ATF)

mtllib roof_low_poly.mtl

g Body2

v -0.010000 0.000000 1.001000
v -0.004304 0.000000 1.077012
v 0.012658 0.000000 1.151325
v 0.040506 0.000000 1.222281
v 0.078618 0.000000 1.288293
v 0.126144 0.000000 1.347888
v 0.182020 0.000000 1.399734
v 0.245000 0.000000 1.442673
v 0.313676 0.000000 1.475746
v 0.386514 0.000000 1.498213
v 0.461888 0.000000 1.509574
v 0.538112 0.000000 1.509574
v 0.613486 0.000000 1.498213
v 0.686324 0.000000 1.475746
v 0.755000 0.000000 1.442673
v 0.817980 0.000000 1.399734
v 0.873856 0.000000 1.347888
v 0.921382 0.000000 1.288293
v 0.959494 0.000000 1.222281
v 0.987342 0.000000 1.151325
v 1.004304 0.000000 1.077012
v 1.010000 0.000000 1.001000
v 1.010000 1.000000 1.001000
v 1.004304 1.000000 1.077012
v 0.987342 1.000000 1.151325
v 0.959494 1.000000 1.222281
v 0.921382 1.000000 1.288293
v 0.873856 1.000000 1.347888
v 0.817980 1.000000 1.399734
v 0.755000 1.000000 1.442673
v 0.686324 1.000000 1.475746
v 0.613486 1.000000 1.498213
v 0.538112 1.000000 1.509574
v 0.461888 1.000000 1.509574
v 0.386514 1.000000 1.498213
v 0.313676 1.000000 1.475746
v 0.245000 1.000000 1.442673
v 0.182020 1.000000 1.399734
v 0.126144 1.000000 1.347888
v 0.078618 1.000000 1.288293
v 0.040506 1.000000 1.222281
v 0.012658 1.000000 1.151325
v -0.004304 1.000000 1.077012
v -0.010000 1.000000 1.001000
v 0.000000 0.000000 1.001000
v 0.000000 1.000000 1.001000
v 1.000000 0.000000 1.001000
v 0.994415 0.000000 1.075521
v 0.977786 0.000000 1.148378
v 0.950484 0.000000 1.217942
v 0.913119 0.000000 1.282660
v 0.866526 0.000000 1.341086
v 0.811745 0.000000 1.391916
v 0.750000 0.000000 1.434013
v 0.682671 0.000000 1.466437
v 0.611260 0.000000 1.488464
v 0.537365 0.000000 1.499602
v 0.462635 0.000000 1.499602
v 0.388740 0.000000 1.488464
v 0.317329 0.000000 1.466437
v 0.250000 0.000000 1.434013
v 0.188255 0.000000 1.391916
v 0.133474 0.000000 1.341086
v 0.086881 0.000000 1.282660
v 0.049516 0.000000 1.217942
v 0.022214 0.000000 1.148378
v 0.005585 0.000000 1.075521
v 0.005585 1.000000 1.075521
v 0.022214 1.000000 1.148378
v 0.049516 1.000000 1.217942
v 0.086881 1.000000 1.282660
v 0.133474 1.000000 1.341086
v 0.188255 1.000000 1.391916
v 0.250000 1.000000 1.434013
v 0.317329 1.000000 1.466437
v 0.388740 1.000000 1.488464
v 0.462635 1.000000 1.499602
v 0.537365 1.000000 1.499602
v 0.611260 1.000000 1.488464
v 0.682671 1.000000 1.466437
v 0.750000 1.000000 1.434013
v 0.811745 1.000000 1.391916
v 0.866526 1.000000 1.341086
v 0.913119 1.000000 1.282660
v 0.950484 1.000000 1.217942
v 0.977786 1.000000 1.148378
v 0.994415 1.000000 1.075521
v 1.000000 1.000000 1.001000
vt -100.000000 0.000000 0.000000
vt -0.000000 0.000000 0.000000
vt -100.000000 7.629582 0.000000
vt -0.000000 7.629582 0.000000
vt -100.000000 15.259164 0.000000
vt -0.000000 15.259164 0.000000
vt -100.000000 22.888746 0.000000
vt -0.000000 22.888746 0.000000
vt -100.000000 30.518329 0.000000
vt -0.000000 30.518329 0.000000
vt -100.000000 38.147911 0.000000
vt -0.000000 38.147911 0.000000
vt -100.000000 45.777493 0.000000
vt -0.000000 45.777493 0.000000
vt -100.000000 53.407075 0.000000
vt -0.000000 53.407075 0.000000
vt -100.000000 61.036657 0.000000
vt -0.000000 61.036657 0.000000
vt -100.000000 68.666239 0.000000
vt -0.000000 68.666239 0.000000
vt -100.000000 76.295822 0.000000
vt -0.000000 76.295822 0.000000
vt -100.000000 83.925404 0.000000
vt -0.000000 83.925404 0.000000
vt -100.000000 91.554986 0.000000
vt -0.000000 91.554986 0.000000
vt -100.000000 99.184568 0.000000
vt -0.000000 99.184568 0.000000
vt -100.000000 106.814150 0.000000
vt -0.000000 106.814150 0.000000
vt -100.000000 114.443732 0.000000
vt -0.000000 114.443732 0.000000
vt -100.000000 122.073314 0.000000
vt -0.000000 122.073314 0.000000
vt -100.000000 129.702897 0.000000
vt -0.000000 129.702897 0.000000
vt -100.000000 137.332479 0.000000
vt -0.000000 137.332479 0.000000
vt -100.000000 144.962061 0.000000
vt -0.000000 144.962061 0.000000
vt -100.000000 152.591643 0.000000
vt -0.000000 152.591643 0.000000
vt -100.000000 160.221225 0.000000
vt -0.000000 160.221225 0.000000
vt -0.000000 0.000000 0.000000
vt 1.000000 0.000000 0.000000
vt -0.000000 100.000000 0.000000
vt 1.000000 100.000000 0.000000
vt 100.000000 -157.079633 0.000000
vt 0.000000 -157.079633 0.000000
vt 100.000000 -164.559615 0.000000
vt 0.000000 -164.559615 0.000000
vt 100.000000 -172.039598 0.000000
vt -0.000000 -172.039598 0.000000
vt 100.000000 -179.519580 0.000000
vt 0.000000 -179.519580 0.000000
vt 100.000000 -186.999563 0.000000
vt -0.000000 -186.999563 0.000000
vt 100.000000 -194.479545 0.000000
vt 0.000000 -194.479545 0.000000
vt 100.000000 -201.959528 0.000000
vt -0.000000 -201.959528 0.000000
vt 100.000000 -209.439510 0.000000
vt 0.000000 -209.439510 0.000000
vt 100.000000 -216.919493 0.000000
vt -0.000000 -216.919493 0.000000
vt 100.000000 -224.399475 0.000000
vt -0.000000 -224.399475 0.000000
vt 100.000000 -231.879458 0.000000
vt 0.000000 -231.879458 0.000000
vt 100.000000 -239.359440 0.000000
vt 0.000000 -239.359440 0.000000
vt 100.000000 -246.839423 0.000000
vt -0.000000 -246.839423 0.000000
vt 100.000000 -254.319405 0.000000
vt -0.000000 -254.319405 0.000000
vt 100.000000 -261.799388 0.000000
vt 0.000000 -261.799388 0.000000
vt 100.000000 -269.279370 0.000000
vt -0.000000 -269.279370 0.000000
vt 100.000000 -276.759353 0.000000
vt 0.000000 -276.759353 0.000000
vt 100.000000 -284.239335 0.000000
vt 0.000000 -284.239335 0.000000
vt 100.000000 -291.719318 0.000000
vt 0.000000 -291.719318 0.000000
vt 100.000000 -299.199300 0.000000
vt 0.000000 -299.199300 0.000000
vt 100.000000 -306.679283 0.000000
vt 0.000000 -306.679283 0.000000
vt 100.000000 -314.159265 0.000000
vt 0.000000 -314.159265 0.000000
vt 0.000000 0.000000 0.000000
vt 1.000000 0.000000 0.000000
vt 0.000000 100.000000 0.000000
vt 1.000000 100.000000 0.000000
vt 50.000000 25.500000 0.000000
vt 49.441541 18.047887 0.000000
vt 51.000000 25.500000 0.000000
vt 50.430372 17.898844 0.000000
vt 47.778640 10.762241 0.000000
vt 48.734213 10.467486 0.000000
vt 45.048443 3.805813 0.000000
vt 45.949412 3.371929 0.000000
vt 41.311939 -2.666003 0.000000
vt 42.138177 -3.229323 0.000000
vt 36.652594 -8.508637 0.000000
vt 37.385645 -9.188810 0.000000
vt 31.174490 -13.591574 0.000000
vt 31.797980 -14.373406 0.000000
vt 25.000000 -17.801270 0.000000
vt 25.500000 -18.667296 0.000000
vt 18.267051 -21.043687 0.000000
vt 18.632392 -21.974561 0.000000
vt 11.126047 -23.246396 0.000000
vt 11.348568 -24.221324 0.000000
vt 3.736505 -24.360190 0.000000
vt 3.811235 -25.357394 0.000000
vt -3.736505 -24.360190 0.000000
vt -3.811235 -25.357394 0.000000
vt -11.348568 -24.221324 0.000000
vt -11.126047 -23.246396 0.000000
vt -18.632392 -21.974561 0.000000
vt -18.267051 -21.043687 0.000000
vt -25.500000 -18.667296 0.000000
vt -25.000000 -17.801270 0.000000
vt -31.797980 -14.373406 0.000000
vt -31.174490 -13.591574 0.000000
vt -37.385645 -9.188810 0.000000
vt -36.652594 -8.508637 0.000000
vt -42.138177 -3.229323 0.000000
vt -41.311939 -2.666003 0.000000
vt -45.949412 3.371929 0.000000
vt -45.048443 3.805813 0.000000
vt -48.734213 10.467486 0.000000
vt -47.778640 10.762241 0.000000
vt -50.430372 17.898844 0.000000
vt -49.441541 18.047887 0.000000
vt -51.000000 25.500000 0.000000
vt -50.000000 25.500000 0.000000
vt -50.000000 25.500000 0.000000
vt -51.000000 25.500000 0.000000
vt -49.441541 18.047887 0.000000
vt -50.430372 17.898844 0.000000
vt -47.778640 10.762241 0.000000
vt -48.734213 10.467486 0.000000
vt -45.048443 3.805813 0.000000
vt -45.949412 3.371929 0.000000
vt -41.311939 -2.666003 0.000000
vt -42.138177 -3.229323 0.000000
vt -36.652594 -8.508637 0.000000
vt -37.385645 -9.188810 0.000000
vt -31.174490 -13.591574 0.000000
vt -31.797980 -14.373406 0.000000
vt -25.000000 -17.801270 0.000000
vt -25.500000 -18.667296 0.000000
vt -18.267051 -21.043687 0.000000
vt -18.632392 -21.974561 0.000000
vt -11.126047 -23.246396 0.000000
vt -11.348568 -24.221324 0.000000
vt -3.736505 -24.360190 0.000000
vt -3.811235 -25.357394 0.000000
vt 3.811235 -25.357394 0.000000
vt 3.736505 -24.360190 0.000000
vt 11.348568 -24.221324 0.000000
vt 11.126047 -23.246396 0.000000
vt 18.632392 -21.974561 0.000000
vt 18.267051 -21.043687 0.000000
vt 25.500000 -18.667296 0.000000
vt 25.000000 -17.801270 0.000000
vt 31.797980 -14.373406 0.000000
vt 31.174490 -13.591574 0.000000
vt 37.385645 -9.188810 0.000000
vt 36.652594 -8.508637 0.000000
vt 42.138177 -3.229323 0.000000
vt 41.311939 -2.666003 0.000000
vt 45.949412 3.371929 0.000000
vt 45.048443 3.805813 0.000000
vt 48.734213 10.467486 0.000000
vt 47.778640 10.762241 0.000000
vt 50.430372 17.898844 0.000000
vt 49.441541 18.047887 0.000000
vt 51.000000 25.500000 0.000000
vt 50.000000 25.500000 0.000000
vn -100.000000 0.000000 0.000000
vn -100.000000 0.000000 0.000000
vn -98.883083 0.000000 14.904227
vn -98.883083 0.000000 14.904227
vn -95.557281 0.000000 29.475517
vn -95.557281 0.000000 29.475517
vn -90.096887 0.000000 43.388374
vn -90.096887 0.000000 43.388374
vn -82.623877 0.000000 56.332006
vn -82.623877 0.000000 56.332006
vn -73.305187 0.000000 68.017274
vn -73.305187 0.000000 68.017274
vn -62.348980 0.000000 78.183148
vn -62.348980 0.000000 78.183148
vn -50.000000 0.000000 86.602540
vn -50.000000 0.000000 86.602540
vn -36.534102 0.000000 93.087375
vn -36.534102 0.000000 93.087375
vn -22.252093 0.000000 97.492791
vn -22.252093 0.000000 97.492791
vn -7.473009 0.000000 99.720380
vn -7.473009 0.000000 99.720380
vn 7.473009 -0.000000 99.720380
vn 7.473009 -0.000000 99.720380
vn 22.252093 -0.000000 97.492791
vn 22.252093 -0.000000 97.492791
vn 36.534102 -0.000000 93.087375
vn 36.534102 -0.000000 93.087375
vn 50.000000 -0.000000 86.602540
vn 50.000000 -0.000000 86.602540
vn 62.348980 -0.000000 78.183148
vn 62.348980 -0.000000 78.183148
vn 73.305187 -0.000000 68.017274
vn 73.305187 -0.000000 68.017274
vn 82.623877 -0.000000 56.332006
vn 82.623877 -0.000000 56.332006
vn 90.096887 -0.000000 43.388374
vn 90.096887 -0.000000 43.388374
vn 95.557281 -0.000000 29.475517
vn 95.557281 -0.000000 29.475517
vn 98.883083 -0.000000 14.904227
vn 98.883083 -0.000000 14.904227
vn 100.000000 -0.000000 0.000000
vn 100.000000 -0.000000 0.000000
vn 0.000000 0.000000 -100.000000
vn 0.000000 0.000000 -100.000000
vn 0.000000 0.000000 -100.000000
vn 0.000000 0.000000 -100.000000
vn -100.000000 0.000000 0.000000
vn -100.000000 0.000000 0.000000
vn -98.883083 0.000000 -14.904227
vn -98.883083 0.000000 -14.904227
vn -95.557281 0.000000 -29.475517
vn -95.557281 0.000000 -29.475517
vn -90.096887 0.000000 -43.388374
vn -90.096887 0.000000 -43.388374
vn -82.623877 0.000000 -56.332006
vn -82.623877 0.000000 -56.332006
vn -73.305187 0.000000 -68.017274
vn -73.305187 0.000000 -68.017274
vn -62.348980 0.000000 -78.183148
vn -62.348980 0.000000 -78.183148
vn -50.000000 0.000000 -86.602540
vn -50.000000 0.000000 -86.602540
vn -36.534102 0.000000 -93.087375
vn -36.534102 0.000000 -93.087375
vn -22.252093 0.000000 -97.492791
vn -22.252093 0.000000 -97.492791
vn -7.473009 0.000000 -99.720380
vn -7.473009 0.000000 -99.720380
vn 7.473009 0.000000 -99.720380
vn 7.473009 0.000000 -99.720380
vn 22.252093 0.000000 -97.492791
vn 22.252093 0.000000 -97.492791
vn 36.534102 0.000000 -93.087375
vn 36.534102 0.000000 -93.087375
vn 50.000000 0.000000 -86.602540
vn 50.000000 0.000000 -86.602540
vn 62.348980 0.000000 -78.183148
vn 62.348980 0.000000 -78.183148
vn 73.305187 0.000000 -68.017274
vn 73.305187 0.000000 -68.017274
vn 82.623877 0.000000 -56.332006
vn 82.623877 0.000000 -56.332006
vn 90.096887 0.000000 -43.388374
vn 90.096887 0.000000 -43.388374
vn 95.557281 0.000000 -29.475517
vn 95.557281 0.000000 -29.475517
vn 98.883083 0.000000 -14.904227
vn 98.883083 0.000000 -14.904227
vn 100.000000 0.000000 -0.000000
vn 100.000000 0.000000 -0.000000
vn 0.000000 0.000000 -100.000000
vn 0.000000 0.000000 -100.000000
vn 0.000000 0.000000 -100.000000
vn 0.000000 0.000000 -100.000000
vn 0.000000 100.000000 0.000000
vn 0.000000 100.000000 0.000000
vn 0.000000 100.000000 0.000000
vn 0.000000 100.000000 0.000000
vn 0.000000 100.000000 0.000000
vn 0.000000 100.000000 0.000000
vn 0.000000 100.000000 0.000000
vn 0.000000 100.000000 0.000000
vn 0.000000 100.000000 0.000000
vn 0.000000 100.000000 0.000000
vn 0.000000 100.000000 0.000000
vn 0.000000 100.000000 0.000000
vn 0.000000 100.000000 0.000000
vn 0.000000 100.000000 0.000000
vn 0.000000 100.000000 0.000000
vn 0.000000 100.000000 0.000000
vn 0.000000 100.000000 0.000000
vn 0.000000 100.000000 0.000000
vn 0.000000 100.000000 0.000000
vn 0.000000 100.000000 0.000000
vn 0.000000 100.000000 0.000000
vn 0.000000 100.000000 0.000000
vn 0.000000 100.000000 0.000000
vn 0.000000 100.000000 0.000000
vn 0.000000 100.000000 0.000000
vn 0.000000 100.000000 0.000000
vn 0.000000 100.000000 0.000000
vn 0.000000 100.000000 0.000000
vn 0.000000 100.000000 0.000000
vn 0.000000 100.000000 0.000000
vn 0.000000 100.000000 0.000000
vn 0.000000 100.000000 0.000000
vn 0.000000 100.000000 0.000000
vn 0.000000 100.000000 0.000000
vn 0.000000 100.000000 0.000000
vn 0.000000 100.000000 0.000000
vn 0.000000 100.000000 0.000000
vn 0.000000 100.000000 0.000000
vn 0.000000 100.000000 0.000000
vn 0.000000 100.000000 0.000000
vn 0.000000 100.000000 0.000000
vn 0.000000 100.000000 0.000000
vn 0.000000 100.000000 0.000000
vn 0.000000 100.000000 0.000000
vn 0.000000 -100.000000 0.000000
vn 0.000000 -100.000000 0.000000
vn 0.000000 -100.000000 0.000000
vn 0.000000 -100.000000 0.000000
vn 0.000000 -100.000000 0.000000
vn 0.000000 -100.000000 0.000000
vn 0.000000 -100.000000 0.000000
vn 0.000000 -100.000000 0.000000
vn 0.000000 -100.000000 0.000000
vn 0.000000 -100.000000 0.000000
vn 0.000000 -100.000000 0.000000
vn 0.000000 -100.000000 0.000000
vn 0.000000 -100.000000 0.000000
vn 0.000000 -100.000000 0.000000
vn 0.000000 -100.000000 0.000000
vn 0.000000 -100.000000 0.000000
vn 0.000000 -100.000000 0.000000
vn 0.000000 -100.000000 0.000000
vn 0.000000 -100.000000 0.000000
vn 0.000000 -100.000000 0.000000
vn 0.000000 -100.000000 0.000000
vn 0.000000 -100.000000 0.000000
vn 0.000000 -100.000000 0.000000
vn 0.000000 -100.000000 0.000000
vn 0.000000 -100.000000 0.000000
vn 0.000000 -100.000000 0.000000
vn 0.000000 -100.000000 0.000000
vn 0.000000 -100.000000 0.000000
vn 0.000000 -100.000000 0.000000
vn 0.000000 -100.000000 0.000000
vn 0.000000 -100.000000 0.000000
vn 0.000000 -100.000000 0.000000
vn 0.000000 -100.000000 0.000000
vn 0.000000 -100.000000 0.000000
vn 0.000000 -100.000000 0.000000
vn 0.000000 -100.000000 0.000000
vn 0.000000 -100.000000 0.000000
vn 0.000000 -100.000000 0.000000
vn 0.000000 -100.000000 0.000000
vn 0.000000 -100.000000 0.000000
vn 0.000000 -100.000000 0.000000
vn 0.000000 -100.000000 0.000000
vn 0.000000 -100.000000 0.000000
vn 0.000000 -100.000000 0.000000
usemtl Mirror
f 44/1/1 1/2/2 43/3/3
f 43/3/3 1/2/2 2/4/4
f 43/3/3 2/4/4 42/5/5
f 42/5/5 2/4/4 3/6/6
f 42/5/5 3/6/6 41/7/7
f 41/7/7 3/6/6 4/8/8
f 41/7/7 4/8/8 40/9/9
f 40/9/9 4/8/8 5/10/10
f 40/9/9 5/10/10 39/11/11
f 39/11/11 5/10/10 6/12/12
f 39/11/11 6/12/12 38/13/13
f 38/13/13 6/12/12 7/14/14
f 38/13/13 7/14/14 37/15/15
f 37/15/15 7/14/14 8/16/16
f 37/15/15 8/16/16 36/17/17
f 36/17/17 8/16/16 9/18/18
f 36/17/17 9/18/18 35/19/19
f 35/19/19 9/18/18 10/20/20
f 35/19/19 10/20/20 34/21/21
f 34/21/21 10/20/20 11/22/22
f 34/21/21 11/22/22 33/23/23
f 33/23/23 11/22/22 12/24/24
f 33/23/23 12/24/24 32/25/25
f 32/25/25 12/24/24 13/26/26
f 32/25/25 13/26/26 31/27/27
f 31/27/27 13/26/26 14/28/28
f 31/27/27 14/28/28 30/29/29
f 30/29/29 14/28/28 15/30/30
f 30/29/29 15/30/30 29/31/31
f 29/31/31 15/30/30 16/32/32
f 29/31/31 16/32/32 28/33/33
f 28/33/33 16/32/32 17/34/34
f 28/33/33 17/34/34 27/35/35
f 27/35/35 17/34/34 18/36/36
f 27/35/35 18/36/36 26/37/37
f 26/37/37 18/36/36 19/38/38
f 26/37/37 19/38/38 25/39/39
f 25/39/39 19/38/38 20/40/40
f 25/39/39 20/40/40 24/41/41
f 24/41/41 20/40/40 21/42/42
f 24/41/41 21/42/42 23/43/43
f 23/43/43 21/42/42 22/44/44
f 45/45/45 1/46/46 46/47/47
f 46/47/47 1/46/46 44/48/48
f 88/49/49 47/50/50 87/51/51
f 87/51/51 47/50/50 48/52/52
f 87/51/51 48/52/52 86/53/53
f 86/53/53 48/52/52 49/54/54
f 86/53/53 49/54/54 85/55/55
f 85/55/55 49/54/54 50/56/56
f 85/55/55 50/56/56 84/57/57
f 84/57/57 50/56/56 51/58/58
f 84/57/57 51/58/58 83/59/59
f 83/59/59 51/58/58 52/60/60
f 83/59/59 52/60/60 82/61/61
f 82/61/61 52/60/60 53/62/62
f 82/61/61 53/62/62 81/63/63
f 81/63/63 53/62/62 54/64/64
f 81/63/63 54/64/64 80/65/65
f 80/65/65 54/64/64 55/66/66
f 80/65/65 55/66/66 79/67/67
f 79/67/67 55/66/66 56/68/68
f 79/67/67 56/68/68 78/69/69
f 78/69/69 56/68/68 57/70/70
f 78/69/69 57/70/70 77/71/71
f 77/71/71 57/70/70 58/72/72
f 77/71/71 58/72/72 76/73/73
f 76/73/73 58/72/72 59/74/74
f 76/73/73 59/74/74 75/75/75
f 75/75/75 59/74/74 60/76/76
f 75/75/75 60/76/76 74/77/77
f 74/77/77 60/76/76 61/78/78
f 74/77/77 61/78/78 73/79/79
f 73/79/79 61/78/78 62/80/80
f 73/79/79 62/80/80 72/81/81
f 72/81/81 62/80/80 63/82/82
f 72/81/81 63/82/82 71/83/83
f 71/83/83 63/82/82 64/84/84
f 71/83/83 64/84/84 70/85/85
f 70/85/85 64/84/84 65/86/86
f 70/85/85 65/86/86 69/87/87
f 69/87/87 65/86/86 66/88/88
f 69/87/87 66/88/88 68/89/89
f 68/89/89 66/88/88 67/90/90
f 68/89/89 67/90/90 46/91/91
f 46/91/91 67/90/90 45/92/92
f 22/93/93 47/94/94 23/95/95
f 23/95/95 47/94/94 88/96/96
f 88/97/97 87/98/98 23/99/99
f 23/99/99 87/98/98 24/100/100
f 24/100/100 87/98/98 86/101/101
f 24/100/100 86/101/101 25/102/102
f 25/102/102 86/101/101 85/103/103
f 25/102/102 85/103/103 26/104/104
f 26/104/104 85/103/103 84/105/105
f 26/104/104 84/105/105 27/106/106
f 27/106/106 84/105/105 83/107/107
f 27/106/106 83/107/107 28/108/108
f 28/108/108 83/107/107 82/109/109
f 28/108/108 82/109/109 29/110/110
f 29/110/110 82/109/109 81/111/111
f 29/110/110 81/111/111 30/112/112
f 30/112/112 81/111/111 80/113/113
f 30/112/112 80/113/113 31/114/114
f 31/114/114 80/113/113 79/115/115
f 31/114/114 79/115/115 32/116/116
f 32/116/116 79/115/115 78/117/117
f 32/116/116 78/117/117 33/118/118
f 33/118/118 78/117/117 77/119/119
f 33/118/118 77/119/119 34/120/120
f 34/120/120 77/119/119 35/121/121
f 35/121/121 77/119/119 76/122/122
f 35/121/121 76/122/122 36/123/123
f 36/123/123 76/122/122 75/124/124
f 36/123/123 75/124/124 37/125/125
f 37/125/125 75/124/124 74/126/126
f 37/125/125 74/126/126 38/127/127
f 38/127/127 74/126/126 73/128/128
f 38/127/127 73/128/128 39/129/129
f 39/129/129 73/128/128 72/130/130
f 39/129/129 72/130/130 40/131/131
f 40/131/131 72/130/130 71/132/132
f 40/131/131 71/132/132 41/133/133
f 41/133/133 71/132/132 70/134/134
f 41/133/133 70/134/134 42/135/135
f 42/135/135 70/134/134 69/136/136
f 42/135/135 69/136/136 43/137/137
f 43/137/137 69/136/136 68/138/138
f 43/137/137 68/138/138 44/139/139
f 44/139/139 68/138/138 46/140/140
f 47/141/141 22/142/142 48/143/143
f 48/143/143 22/142/142 21/144/144
f 48/143/143 21/144/144 49/145/145
f 49/145/145 21/144/144 20/146/146
f 49/145/145 20/146/146 50/147/147
f 50/147/147 20/146/146 19/148/148
f 50/147/147 19/148/148 51/149/149
f 51/149/149 19/148/148 18/150/150
f 51/149/149 18/150/150 52/151/151
f 52/151/151 18/150/150 17/152/152
f 52/151/151 17/152/152 53/153/153
f 53/153/153 17/152/152 16/154/154
f 53/153/153 16/154/154 54/155/155
f 54/155/155 16/154/154 15/156/156
f 54/155/155 15/156/156 55/157/157
f 55/157/157 15/156/156 14/158/158
f 55/157/157 14/158/158 56/159/159
f 56/159/159 14/158/158 13/160/160
f 56/159/159 13/160/160 57/161/161
f 57/161/161 13/160/160 12/162/162
f 57/161/161 12/162/162 11/163/163
f 57/161/161 11/163/163 58/164/164
f 58/164/164 11/163/163 10/165/165
f 58/164/164 10/165/165 59/166/166
f 59/166/166 10/165/165 9/167/167
f 59/166/166 9/167/167 60/168/168
f 60/168/168 9/167/167 8/169/169
f 60/168/168 8/169/169 61/170/170
f 61/170/170 8/169/169 7/171/171
f 61/170/170 7/171/171 62/172/172
f 62/172/172 7/171/171 6/173/173
f 62/172/172 6/173/173 63/174/174
f 63/174/174 6/173/173 5/175/175
f 63/174/174 5/175/175 64/176/176
f 64/176/176 5/175/175 4/177/177
f 64/176/176 4/177/177 65/178/178
f 65/178/178 4/177/177 3/179/179
f 65/178/178 3/179/179 66/180/180
f 66/180/180 3/179/179 2/181/181
f 66/180/180 2/181/181 67/182/182
f 67/182/182 2/181/181 1/183/183
f 67/182/182 1/183/183 45/184/184
# 88 vertices
# 184 texture params
# 184 normals
# 172 facets

# 1 groups
