# WaveFront *.obj file (generated by Autodesk ATF)

mtllib superi_mag.mtl

g Body2

v 0.030622 -0.246911 0.085401
v 0.030622 -0.246911 0.164829
v -0.027446 -0.246911 0.164829
v -0.027446 -0.246911 0.085401
v 0.030622 0.026934 0.133266
v -0.027446 0.026934 0.133266
v 0.030622 0.059032 0.218304
v -0.027446 0.059032 0.218304
vt 0.000000 -0.000000 0.000000
vt 0.007943 -0.000000 0.000000
vt 0.000000 0.005807 0.000000
vt 0.007943 0.005807 0.000000
vt 0.000000 -0.000000 0.000000
vt 0.027800 0.000000 0.000000
vt -0.000000 0.005807 0.000000
vt 0.027800 0.005807 0.000000
vt 0.000000 -0.000000 0.000000
vt 0.009089 -0.000000 0.000000
vt -0.000000 0.005807 0.000000
vt 0.009089 0.005807 0.000000
vt 0.000000 -0.000000 0.000000
vt 0.031058 0.000000 0.000000
vt 0.000000 0.005807 0.000000
vt 0.031058 0.005807 0.000000
vt 0.006645 0.015297 0.000000
vt -0.001859 0.012087 0.000000
vt 0.001298 -0.015297 0.000000
vt -0.006645 -0.015297 0.000000
vt -0.006645 0.015297 0.000000
vt -0.001298 -0.015297 0.000000
vt 0.001859 0.012087 0.000000
vt 0.006645 -0.015297 0.000000
vn 0.000000 -0.100000 0.000000
vn 0.000000 -0.100000 0.000000
vn 0.000000 -0.100000 0.000000
vn 0.000000 -0.100000 0.000000
vn 0.000000 0.017218 -0.098507
vn 0.000000 0.017218 -0.098507
vn 0.000000 0.017218 -0.098507
vn 0.000000 0.017218 -0.098507
vn 0.000000 0.093557 -0.035313
vn 0.000000 0.093557 -0.035313
vn 0.000000 0.093557 -0.035313
vn 0.000000 0.093557 -0.035313
vn -0.000000 -0.017218 0.098507
vn -0.000000 -0.017218 0.098507
vn -0.000000 -0.017218 0.098507
vn -0.000000 -0.017218 0.098507
vn -0.100000 -0.000000 -0.000000
vn -0.100000 -0.000000 -0.000000
vn -0.100000 -0.000000 -0.000000
vn -0.100000 -0.000000 -0.000000
vn 0.100000 0.000000 0.000000
vn 0.100000 0.000000 0.000000
vn 0.100000 0.000000 0.000000
vn 0.100000 0.000000 0.000000
usemtl Steel_-_Satin
f 1/1/1 2/2/2 4/3/3
f 4/3/3 2/2/2 3/4/4
f 5/5/5 1/6/6 6/7/7
f 6/7/7 1/6/6 4/8/8
f 7/9/9 5/10/10 8/11/11
f 8/11/11 5/10/10 6/12/12
f 2/13/13 7/14/14 3/15/15
f 3/15/15 7/14/14 8/16/16
f 8/17/17 6/18/18 3/19/19
f 3/19/19 6/18/18 4/20/20
f 7/21/21 2/22/22 5/23/23
f 5/23/23 2/22/22 1/24/24
# 8 vertices
# 24 texture params
# 24 normals
# 12 facets

# 1 groups
