# WaveFront *.obj file (generated by Autodesk ATF)

mtllib Body1.mtl

g Body1

v -360.000000 0.000000 -500.000000
v -360.000000 0.000000 0.000000
v -360.000000 -50.000000 0.000000
v -360.000000 -50.000000 -500.000000
v -500.000000 0.000000 -500.000000
v -500.000000 -50.000000 -500.000000
v -500.000000 0.000000 500.000000
v -500.000000 -50.000000 500.000000
v 500.000000 0.000000 500.000000
v 500.000000 -50.000000 500.000000
v 500.000000 0.000000 0.000000
v 500.000000 -50.000000 0.000000
v 100.000000 0.000000 0.000000
v 100.000000 -50.000000 0.000000
v 100.000000 0.000000 -50.000000
v 100.000000 -50.000000 -50.000000
v 500.000000 0.000000 -50.000000
v 500.000000 -50.000000 -50.000000
v 500.000000 0.000000 -500.000000
v 500.000000 -50.000000 -500.000000
v -350.000000 0.000000 -500.000000
v -350.000000 -50.000000 -500.000000
v -350.000000 0.000000 -50.000000
v -350.000000 -50.000000 -50.000000
v -50.000000 0.000000 -50.000000
v -50.000000 -50.000000 -50.000000
v -50.000000 0.000000 0.000000
v -50.000000 -50.000000 0.000000
vt 0.000000 0.000000 0.000000
vt 50.000000 0.000000 0.000000
vt 0.000000 5.000000 0.000000
vt 50.000000 5.000000 0.000000
vt 0.000000 0.000000 0.000000
vt 14.000000 0.000000 0.000000
vt 0.000000 5.000000 0.000000
vt 14.000000 5.000000 0.000000
vt -0.000000 0.000000 0.000000
vt 100.000000 0.000000 0.000000
vt 0.000000 5.000000 0.000000
vt 100.000000 5.000000 0.000000
vt -0.000000 0.000000 0.000000
vt 100.000000 0.000000 0.000000
vt 0.000000 5.000000 0.000000
vt 100.000000 5.000000 0.000000
vt 0.000000 0.000000 0.000000
vt 50.000000 0.000000 0.000000
vt 0.000000 5.000000 0.000000
vt 50.000000 5.000000 0.000000
vt 0.000000 0.000000 0.000000
vt 40.000000 0.000000 0.000000
vt 0.000000 5.000000 0.000000
vt 40.000000 5.000000 0.000000
vt 0.000000 0.000000 0.000000
vt 5.000000 0.000000 0.000000
vt 0.000000 5.000000 0.000000
vt 5.000000 5.000000 0.000000
vt -0.000000 0.000000 0.000000
vt 40.000000 0.000000 0.000000
vt 0.000000 5.000000 0.000000
vt 40.000000 5.000000 0.000000
vt 0.000000 0.000000 0.000000
vt 45.000000 0.000000 0.000000
vt 0.000000 5.000000 0.000000
vt 45.000000 5.000000 0.000000
vt 0.000000 0.000000 0.000000
vt 85.000000 0.000000 0.000000
vt 0.000000 5.000000 0.000000
vt 85.000000 5.000000 0.000000
vt -0.000000 0.000000 0.000000
vt 45.000000 0.000000 0.000000
vt 0.000000 5.000000 0.000000
vt 45.000000 5.000000 0.000000
vt -0.000000 0.000000 0.000000
vt 30.000000 0.000000 0.000000
vt 0.000000 5.000000 0.000000
vt 30.000000 5.000000 0.000000
vt -0.000000 0.000000 0.000000
vt 5.000000 0.000000 0.000000
vt 0.000000 5.000000 0.000000
vt 5.000000 5.000000 0.000000
vt 0.000000 0.000000 0.000000
vt 31.000000 0.000000 0.000000
vt 0.000000 5.000000 0.000000
vt 31.000000 5.000000 0.000000
vt -36.000000 0.000000 0.000000
vt -50.000000 -50.000000 0.000000
vt -5.000000 0.000000 0.000000
vt 50.000000 -50.000000 0.000000
vt 10.000000 0.000000 0.000000
vt 50.000000 0.000000 0.000000
vt -36.000000 50.000000 0.000000
vt -50.000000 50.000000 0.000000
vt -5.000000 5.000000 0.000000
vt 10.000000 5.000000 0.000000
vt -35.000000 50.000000 0.000000
vt 50.000000 50.000000 0.000000
vt 50.000000 5.000000 0.000000
vt -35.000000 5.000000 0.000000
vt 0.000000 -5.000000 0.000000
vt -50.000000 -50.000000 0.000000
vt 0.000000 -36.000000 0.000000
vt 50.000000 -50.000000 0.000000
vt 50.000000 -36.000000 0.000000
vt 5.000000 -5.000000 0.000000
vt 0.000000 10.000000 0.000000
vt -50.000000 50.000000 0.000000
vt 5.000000 -35.000000 0.000000
vt 50.000000 -35.000000 0.000000
vt 5.000000 10.000000 0.000000
vt 50.000000 50.000000 0.000000
vt 5.000000 50.000000 0.000000
vt 0.000000 50.000000 0.000000
vn 0.100000 0.000000 0.000000
vn 0.100000 0.000000 0.000000
vn 0.100000 0.000000 0.000000
vn 0.100000 0.000000 0.000000
vn 0.000000 0.000000 -0.100000
vn 0.000000 0.000000 -0.100000
vn 0.000000 0.000000 -0.100000
vn 0.000000 0.000000 -0.100000
vn -0.100000 0.000000 0.000000
vn -0.100000 0.000000 0.000000
vn -0.100000 0.000000 0.000000
vn -0.100000 0.000000 0.000000
vn 0.000000 0.000000 0.100000
vn 0.000000 0.000000 0.100000
vn 0.000000 0.000000 0.100000
vn 0.000000 0.000000 0.100000
vn 0.100000 0.000000 0.000000
vn 0.100000 0.000000 0.000000
vn 0.100000 0.000000 0.000000
vn 0.100000 0.000000 0.000000
vn 0.000000 0.000000 -0.100000
vn 0.000000 0.000000 -0.100000
vn 0.000000 0.000000 -0.100000
vn 0.000000 0.000000 -0.100000
vn 0.100000 0.000000 0.000000
vn 0.100000 0.000000 0.000000
vn 0.100000 0.000000 0.000000
vn 0.100000 0.000000 0.000000
vn 0.000000 0.000000 0.100000
vn 0.000000 0.000000 0.100000
vn 0.000000 0.000000 0.100000
vn 0.000000 0.000000 0.100000
vn 0.100000 0.000000 0.000000
vn 0.100000 0.000000 0.000000
vn 0.100000 0.000000 0.000000
vn 0.100000 0.000000 0.000000
vn 0.000000 0.000000 -0.100000
vn 0.000000 0.000000 -0.100000
vn 0.000000 0.000000 -0.100000
vn 0.000000 0.000000 -0.100000
vn -0.100000 0.000000 0.000000
vn -0.100000 0.000000 0.000000
vn -0.100000 0.000000 0.000000
vn -0.100000 0.000000 0.000000
vn 0.000000 0.000000 0.100000
vn 0.000000 0.000000 0.100000
vn 0.000000 0.000000 0.100000
vn 0.000000 0.000000 0.100000
vn -0.100000 0.000000 0.000000
vn -0.100000 0.000000 0.000000
vn -0.100000 0.000000 0.000000
vn -0.100000 0.000000 0.000000
vn 0.000000 0.000000 -0.100000
vn 0.000000 0.000000 -0.100000
vn 0.000000 0.000000 -0.100000
vn 0.000000 0.000000 -0.100000
vn 0.000000 0.100000 0.000000
vn 0.000000 0.100000 0.000000
vn 0.000000 0.100000 0.000000
vn 0.000000 0.100000 0.000000
vn 0.000000 0.100000 0.000000
vn 0.000000 0.100000 0.000000
vn 0.000000 0.100000 0.000000
vn 0.000000 0.100000 0.000000
vn 0.000000 0.100000 0.000000
vn 0.000000 0.100000 0.000000
vn 0.000000 0.100000 0.000000
vn 0.000000 0.100000 0.000000
vn 0.000000 0.100000 0.000000
vn 0.000000 0.100000 0.000000
vn 0.000000 -0.100000 0.000000
vn 0.000000 -0.100000 0.000000
vn 0.000000 -0.100000 0.000000
vn 0.000000 -0.100000 0.000000
vn 0.000000 -0.100000 0.000000
vn 0.000000 -0.100000 0.000000
vn 0.000000 -0.100000 0.000000
vn 0.000000 -0.100000 0.000000
vn 0.000000 -0.100000 0.000000
vn 0.000000 -0.100000 0.000000
vn 0.000000 -0.100000 0.000000
vn 0.000000 -0.100000 0.000000
vn 0.000000 -0.100000 0.000000
vn 0.000000 -0.100000 0.000000
usemtl Steel_-_Satin
f 1/1/1 2/2/2 4/3/3
f 4/3/3 2/2/2 3/4/4
f 5/5/5 1/6/6 6/7/7
f 6/7/7 1/6/6 4/8/8
f 7/9/9 5/10/10 8/11/11
f 8/11/11 5/10/10 6/12/12
f 9/13/13 7/14/14 10/15/15
f 10/15/15 7/14/14 8/16/16
f 11/17/17 9/18/18 12/19/19
f 12/19/19 9/18/18 10/20/20
f 13/21/21 11/22/22 14/23/23
f 14/23/23 11/22/22 12/24/24
f 15/25/25 13/26/26 16/27/27
f 16/27/27 13/26/26 14/28/28
f 17/29/29 15/30/30 18/31/31
f 18/31/31 15/30/30 16/32/32
f 19/33/33 17/34/34 20/35/35
f 20/35/35 17/34/34 18/36/36
f 21/37/37 19/38/38 22/39/39
f 22/39/39 19/38/38 20/40/40
f 23/41/41 21/42/42 24/43/43
f 24/43/43 21/42/42 22/44/44
f 25/45/45 23/46/46 26/47/47
f 26/47/47 23/46/46 24/48/48
f 27/49/49 25/50/50 28/51/51
f 28/51/51 25/50/50 26/52/52
f 2/53/53 27/54/54 3/55/55
f 3/55/55 27/54/54 28/56/56
f 2/57/57 7/58/58 27/59/59
f 27/59/59 7/58/58 9/60/60
f 27/59/59 9/60/60 13/61/61
f 13/61/61 9/60/60 11/62/62
f 1/63/63 5/64/64 2/57/57
f 2/57/57 5/64/64 7/58/58
f 27/59/59 13/61/61 25/65/65
f 25/65/65 13/61/61 15/66/66
f 25/65/65 15/66/66 21/67/67
f 21/67/67 15/66/66 19/68/68
f 19/68/68 15/66/66 17/69/69
f 21/67/67 23/70/70 25/65/65
f 28/71/71 8/72/72 3/73/73
f 3/73/73 8/72/72 6/74/74
f 3/73/73 6/74/74 4/75/75
f 26/76/76 14/77/77 28/71/71
f 28/71/71 14/77/77 10/78/78
f 28/71/71 10/78/78 8/72/72
f 24/79/79 22/80/80 26/76/76
f 26/76/76 22/80/80 16/81/81
f 26/76/76 16/81/81 14/77/77
f 22/80/80 20/82/82 16/81/81
f 16/81/81 20/82/82 18/83/83
f 14/77/77 12/84/84 10/78/78
# 28 vertices
# 84 texture params
# 84 normals
# 52 facets

# 1 groups
