# WaveFront *.obj file (generated by Autodesk ATF)

mtllib deagle_slide.mtl

g Body1

v -0.400000 -0.799603 1.348212
v -0.400000 -1.250818 1.348212
v -0.340000 -1.250818 1.348212
v -0.340000 -0.799603 1.348212
v -0.400000 -0.772286 1.300897
v -0.340000 -0.772286 1.300897
v -0.400000 -1.250818 1.298212
v -0.340000 -1.250818 1.298212
vt 0.000000 0.000000 0.000000
vt 0.045121 0.000000 0.000000
vt 0.000000 0.006000 0.000000
vt 0.045121 0.006000 0.000000
vt 0.000000 0.000000 0.000000
vt 0.005463 0.000000 0.000000
vt 0.000000 0.006000 0.000000
vt 0.005463 0.006000 0.000000
vt 0.000000 0.000000 0.000000
vt 0.047854 0.000000 0.000000
vt 0.000000 0.006000 0.000000
vt 0.047854 0.006000 0.000000
vt 0.000000 0.000000 0.000000
vt 0.005000 0.000000 0.000000
vt 0.000000 0.006000 0.000000
vt 0.005000 0.006000 0.000000
vt 0.023927 0.002500 0.000000
vt -0.021195 0.002500 0.000000
vt 0.023927 -0.002500 0.000000
vt -0.023927 -0.002232 0.000000
vt -0.002500 -0.023927 0.000000
vt 0.002500 -0.023927 0.000000
vt -0.002500 0.021195 0.000000
vt 0.002232 0.023927 0.000000
vn 0.000000 0.000000 0.100000
vn 0.000000 0.000000 0.100000
vn 0.000000 0.000000 0.100000
vn 0.000000 0.000000 0.100000
vn 0.000000 0.086603 0.049999
vn 0.000000 0.086603 0.049999
vn 0.000000 0.086603 0.049999
vn 0.000000 0.086603 0.049999
vn 0.000000 0.000561 -0.099998
vn 0.000000 0.000561 -0.099998
vn 0.000000 0.000561 -0.099998
vn 0.000000 0.000561 -0.099998
vn 0.000000 -0.100000 0.000000
vn 0.000000 -0.100000 0.000000
vn 0.000000 -0.100000 0.000000
vn 0.000000 -0.100000 0.000000
vn -0.100000 0.000000 0.000000
vn -0.100000 0.000000 0.000000
vn -0.100000 0.000000 0.000000
vn -0.100000 0.000000 0.000000
vn 0.100000 0.000000 0.000000
vn 0.100000 0.000000 0.000000
vn 0.100000 0.000000 0.000000
vn 0.100000 0.000000 0.000000
usemtl Gold_-_Polished
f 1/1/1 2/2/2 4/3/3
f 4/3/3 2/2/2 3/4/4
f 5/5/5 1/6/6 6/7/7
f 6/7/7 1/6/6 4/8/8
f 7/9/9 5/10/10 8/11/11
f 8/11/11 5/10/10 6/12/12
f 2/13/13 7/14/14 3/15/15
f 3/15/15 7/14/14 8/16/16
f 2/17/17 1/18/18 7/19/19
f 7/19/19 1/18/18 5/20/20
f 3/21/21 8/22/22 4/23/23
f 4/23/23 8/22/22 6/24/24
# 8 vertices
# 24 texture params
# 24 normals
# 12 facets

# 1 groups
