# WaveFront *.obj file (generated by Autodesk ATF)

mtllib Body6.mtl

g Body6

v -5.000000 -10.000000 0.000000
v -4.931807 -10.000000 0.822973
v -4.729086 -10.000000 1.623497
v -4.397369 -10.000000 2.379737
v -3.945703 -10.000000 3.071064
v -3.386408 -10.000000 3.678620
v -2.734741 -10.000000 4.185832
v -2.008477 -10.000000 4.578867
v -1.227427 -10.000000 4.847001
v -0.412897 -10.000000 4.982922
v 0.412897 -10.000000 4.982922
v 1.227427 -10.000000 4.847001
v 2.008477 -10.000000 4.578867
v 2.734741 -10.000000 4.185832
v 3.386408 -10.000000 3.678620
v 3.945703 -10.000000 3.071064
v 4.397369 -10.000000 2.379737
v 4.729086 -10.000000 1.623497
v 4.931807 -10.000000 0.822973
v 5.000000 -10.000000 0.000000
v 4.931807 -10.000000 -0.822973
v 4.729086 -10.000000 -1.623497
v 4.397369 -10.000000 -2.379737
v 3.945703 -10.000000 -3.071064
v 3.386408 -10.000000 -3.678620
v 2.734741 -10.000000 -4.185832
v 2.008477 -10.000000 -4.578867
v 1.227427 -10.000000 -4.847001
v 0.412897 -10.000000 -4.982922
v -0.412897 -10.000000 -4.982922
v -1.227427 -10.000000 -4.847001
v -2.008477 -10.000000 -4.578867
v -2.734741 -10.000000 -4.185832
v -3.386408 -10.000000 -3.678620
v -3.945703 -10.000000 -3.071064
v -4.397369 -10.000000 -2.379737
v -4.729086 -10.000000 -1.623497
v -4.931807 -10.000000 -0.822973
v -5.000000 0.000000 0.000000
v -4.931807 0.000000 -0.822973
v -4.729086 0.000000 -1.623497
v -4.397369 0.000000 -2.379737
v -3.945703 0.000000 -3.071064
v -3.386408 0.000000 -3.678620
v -2.734741 0.000000 -4.185832
v -2.008477 0.000000 -4.578867
v -1.227427 0.000000 -4.847001
v -0.412897 0.000000 -4.982922
v 0.412897 0.000000 -4.982922
v 1.227427 0.000000 -4.847001
v 2.008477 0.000000 -4.578867
v 2.734741 0.000000 -4.185832
v 3.386408 0.000000 -3.678620
v 3.945703 0.000000 -3.071064
v 4.397369 0.000000 -2.379737
v 4.729086 0.000000 -1.623497
v 4.931807 0.000000 -0.822973
v 5.000000 0.000000 0.000000
v 4.931807 0.000000 0.822973
v 4.729086 0.000000 1.623497
v 4.397369 0.000000 2.379737
v 3.945703 0.000000 3.071064
v 3.386408 0.000000 3.678620
v 2.734741 0.000000 4.185832
v 2.008477 0.000000 4.578867
v 1.227427 0.000000 4.847001
v 0.412897 0.000000 4.982922
v -0.412897 0.000000 4.982922
v -1.227427 0.000000 4.847001
v -2.008477 0.000000 4.578867
v -2.734741 0.000000 4.185832
v -3.386408 0.000000 3.678620
v -3.945703 0.000000 3.071064
v -4.397369 0.000000 2.379737
v -4.729086 0.000000 1.623497
v -4.931807 0.000000 0.822973
vt -1.000000 1.488123 0.000000
vt -0.000000 1.488123 0.000000
vt -1.000000 1.570796 0.000000
vt -0.000000 1.570796 0.000000
vt -1.000000 -1.570796 0.000000
vt -0.000000 -1.570796 0.000000
vt -1.000000 -1.488123 0.000000
vt 0.000000 -1.488123 0.000000
vt -1.000000 -1.405449 0.000000
vt 0.000000 -1.405449 0.000000
vt -1.000000 -1.322776 0.000000
vt 0.000000 -1.322776 0.000000
vt -1.000000 -1.240102 0.000000
vt 0.000000 -1.240102 0.000000
vt -1.000000 -1.157429 0.000000
vt 0.000000 -1.157429 0.000000
vt -1.000000 -1.074755 0.000000
vt 0.000000 -1.074755 0.000000
vt -1.000000 -0.992082 0.000000
vt 0.000000 -0.992082 0.000000
vt -1.000000 -0.909408 0.000000
vt 0.000000 -0.909408 0.000000
vt -1.000000 -0.826735 0.000000
vt 0.000000 -0.826735 0.000000
vt -1.000000 -0.744061 0.000000
vt -0.000000 -0.744061 0.000000
vt -1.000000 -0.661388 0.000000
vt -0.000000 -0.661388 0.000000
vt -1.000000 -0.578714 0.000000
vt -0.000000 -0.578714 0.000000
vt -1.000000 -0.496041 0.000000
vt -0.000000 -0.496041 0.000000
vt -1.000000 -0.413367 0.000000
vt -0.000000 -0.413367 0.000000
vt -1.000000 -0.330694 0.000000
vt -0.000000 -0.330694 0.000000
vt -1.000000 -0.248020 0.000000
vt -0.000000 -0.248020 0.000000
vt -1.000000 -0.165347 0.000000
vt -0.000000 -0.165347 0.000000
vt -1.000000 -0.082673 0.000000
vt -0.000000 -0.082673 0.000000
vt -1.000000 0.000000 0.000000
vt -0.000000 0.000000 0.000000
vt -1.000000 0.082673 0.000000
vt -0.000000 0.082673 0.000000
vt -1.000000 0.165347 0.000000
vt -0.000000 0.165347 0.000000
vt -1.000000 0.248020 0.000000
vt -0.000000 0.248020 0.000000
vt -1.000000 0.330694 0.000000
vt -0.000000 0.330694 0.000000
vt -1.000000 0.413367 0.000000
vt -0.000000 0.413367 0.000000
vt -1.000000 0.496041 0.000000
vt -0.000000 0.496041 0.000000
vt -1.000000 0.578714 0.000000
vt -0.000000 0.578714 0.000000
vt -1.000000 0.661388 0.000000
vt -0.000000 0.661388 0.000000
vt -1.000000 0.744061 0.000000
vt -0.000000 0.744061 0.000000
vt -1.000000 0.826735 0.000000
vt -0.000000 0.826735 0.000000
vt -1.000000 0.909408 0.000000
vt -0.000000 0.909408 0.000000
vt -1.000000 0.992082 0.000000
vt -0.000000 0.992082 0.000000
vt -1.000000 1.074755 0.000000
vt -0.000000 1.074755 0.000000
vt -1.000000 1.157429 0.000000
vt -0.000000 1.157429 0.000000
vt -1.000000 1.240102 0.000000
vt -0.000000 1.240102 0.000000
vt -1.000000 1.322776 0.000000
vt -0.000000 1.322776 0.000000
vt -1.000000 1.405449 0.000000
vt -0.000000 1.405449 0.000000
vt -0.493181 -0.082297 0.000000
vt 0.493181 -0.082297 0.000000
vt -0.500000 -0.000000 0.000000
vt 0.500000 0.000000 0.000000
vt -0.493181 0.082297 0.000000
vt 0.493181 0.082297 0.000000
vt -0.472909 0.162350 0.000000
vt 0.472909 0.162350 0.000000
vt -0.439737 0.237974 0.000000
vt 0.439737 0.237974 0.000000
vt -0.394570 0.307106 0.000000
vt 0.394570 0.307106 0.000000
vt -0.338641 0.367862 0.000000
vt 0.338641 0.367862 0.000000
vt -0.273474 0.418583 0.000000
vt 0.273474 0.418583 0.000000
vt -0.200848 0.457887 0.000000
vt 0.200848 0.457887 0.000000
vt -0.122743 0.484700 0.000000
vt 0.122743 0.484700 0.000000
vt -0.041290 0.498292 0.000000
vt 0.041290 0.498292 0.000000
vt 0.472909 -0.162350 0.000000
vt -0.472909 -0.162350 0.000000
vt 0.439737 -0.237974 0.000000
vt -0.439737 -0.237974 0.000000
vt 0.394570 -0.307106 0.000000
vt -0.394570 -0.307106 0.000000
vt 0.338641 -0.367862 0.000000
vt -0.338641 -0.367862 0.000000
vt 0.273474 -0.418583 0.000000
vt -0.273474 -0.418583 0.000000
vt 0.200848 -0.457887 0.000000
vt -0.200848 -0.457887 0.000000
vt 0.122743 -0.484700 0.000000
vt -0.122743 -0.484700 0.000000
vt 0.041290 -0.498292 0.000000
vt -0.041290 -0.498292 0.000000
vt 0.493181 0.082297 0.000000
vt -0.493181 0.082297 0.000000
vt 0.500000 -0.000000 0.000000
vt -0.500000 0.000000 0.000000
vt 0.493181 -0.082297 0.000000
vt -0.493181 -0.082297 0.000000
vt 0.472909 -0.162350 0.000000
vt -0.472909 -0.162350 0.000000
vt 0.439737 -0.237974 0.000000
vt -0.439737 -0.237974 0.000000
vt 0.394570 -0.307106 0.000000
vt -0.394570 -0.307106 0.000000
vt 0.338641 -0.367862 0.000000
vt -0.338641 -0.367862 0.000000
vt 0.273474 -0.418583 0.000000
vt -0.273474 -0.418583 0.000000
vt 0.200848 -0.457887 0.000000
vt -0.200848 -0.457887 0.000000
vt 0.122743 -0.484700 0.000000
vt -0.122743 -0.484700 0.000000
vt 0.041290 -0.498292 0.000000
vt -0.041290 -0.498292 0.000000
vt -0.472909 0.162350 0.000000
vt 0.472909 0.162350 0.000000
vt -0.439737 0.237974 0.000000
vt 0.439737 0.237974 0.000000
vt -0.394570 0.307106 0.000000
vt 0.394570 0.307106 0.000000
vt -0.338641 0.367862 0.000000
vt 0.338641 0.367862 0.000000
vt -0.273474 0.418583 0.000000
vt 0.273474 0.418583 0.000000
vt -0.200848 0.457887 0.000000
vt 0.200848 0.457887 0.000000
vt -0.122743 0.484700 0.000000
vt 0.122743 0.484700 0.000000
vt -0.041290 0.498292 0.000000
vt 0.041290 0.498292 0.000000
vn -0.098636 0.000000 0.016459
vn -0.098636 0.000000 0.016459
vn -0.100000 0.000000 0.000000
vn -0.100000 0.000000 0.000000
vn -0.098636 0.000000 -0.016459
vn -0.098636 0.000000 -0.016459
vn -0.094582 0.000000 -0.032470
vn -0.094582 0.000000 -0.032470
vn -0.087947 0.000000 -0.047595
vn -0.087947 0.000000 -0.047595
vn -0.078914 0.000000 -0.061421
vn -0.078914 0.000000 -0.061421
vn -0.067728 0.000000 -0.073572
vn -0.067728 0.000000 -0.073572
vn -0.054695 0.000000 -0.083717
vn -0.054695 0.000000 -0.083717
vn -0.040170 0.000000 -0.091577
vn -0.040170 0.000000 -0.091577
vn -0.024549 0.000000 -0.096940
vn -0.024549 0.000000 -0.096940
vn -0.008258 0.000000 -0.099658
vn -0.008258 0.000000 -0.099658
vn 0.008258 0.000000 -0.099658
vn 0.008258 0.000000 -0.099658
vn 0.024549 0.000000 -0.096940
vn 0.024549 0.000000 -0.096940
vn 0.040170 0.000000 -0.091577
vn 0.040170 0.000000 -0.091577
vn 0.054695 0.000000 -0.083717
vn 0.054695 0.000000 -0.083717
vn 0.067728 0.000000 -0.073572
vn 0.067728 0.000000 -0.073572
vn 0.078914 0.000000 -0.061421
vn 0.078914 0.000000 -0.061421
vn 0.087947 0.000000 -0.047595
vn 0.087947 0.000000 -0.047595
vn 0.094582 0.000000 -0.032470
vn 0.094582 0.000000 -0.032470
vn 0.098636 0.000000 -0.016459
vn 0.098636 0.000000 -0.016459
vn 0.100000 0.000000 0.000000
vn 0.100000 0.000000 0.000000
vn 0.098636 0.000000 0.016459
vn 0.098636 0.000000 0.016459
vn 0.094582 0.000000 0.032470
vn 0.094582 0.000000 0.032470
vn 0.087947 0.000000 0.047595
vn 0.087947 0.000000 0.047595
vn 0.078914 0.000000 0.061421
vn 0.078914 0.000000 0.061421
vn 0.067728 0.000000 0.073572
vn 0.067728 0.000000 0.073572
vn 0.054695 0.000000 0.083717
vn 0.054695 0.000000 0.083717
vn 0.040170 0.000000 0.091577
vn 0.040170 0.000000 0.091577
vn 0.024549 0.000000 0.096940
vn 0.024549 0.000000 0.096940
vn 0.008258 0.000000 0.099658
vn 0.008258 0.000000 0.099658
vn -0.008258 0.000000 0.099658
vn -0.008258 0.000000 0.099658
vn -0.024549 0.000000 0.096940
vn -0.024549 0.000000 0.096940
vn -0.040170 0.000000 0.091577
vn -0.040170 0.000000 0.091577
vn -0.054695 0.000000 0.083717
vn -0.054695 0.000000 0.083717
vn -0.067728 0.000000 0.073572
vn -0.067728 0.000000 0.073572
vn -0.078914 0.000000 0.061421
vn -0.078914 0.000000 0.061421
vn -0.087947 0.000000 0.047595
vn -0.087947 0.000000 0.047595
vn -0.094582 0.000000 0.032470
vn -0.094582 0.000000 0.032470
vn 0.000000 0.100000 0.000000
vn 0.000000 0.100000 0.000000
vn 0.000000 0.100000 0.000000
vn 0.000000 0.100000 0.000000
vn 0.000000 0.100000 0.000000
vn 0.000000 0.100000 0.000000
vn 0.000000 0.100000 0.000000
vn 0.000000 0.100000 0.000000
vn 0.000000 0.100000 0.000000
vn 0.000000 0.100000 0.000000
vn 0.000000 0.100000 0.000000
vn 0.000000 0.100000 0.000000
vn 0.000000 0.100000 0.000000
vn 0.000000 0.100000 0.000000
vn 0.000000 0.100000 0.000000
vn 0.000000 0.100000 0.000000
vn 0.000000 0.100000 0.000000
vn 0.000000 0.100000 0.000000
vn 0.000000 0.100000 0.000000
vn 0.000000 0.100000 0.000000
vn 0.000000 0.100000 0.000000
vn 0.000000 0.100000 0.000000
vn 0.000000 0.100000 0.000000
vn 0.000000 0.100000 0.000000
vn 0.000000 0.100000 0.000000
vn 0.000000 0.100000 0.000000
vn 0.000000 0.100000 0.000000
vn 0.000000 0.100000 0.000000
vn 0.000000 0.100000 0.000000
vn 0.000000 0.100000 0.000000
vn 0.000000 0.100000 0.000000
vn 0.000000 0.100000 0.000000
vn 0.000000 0.100000 0.000000
vn 0.000000 0.100000 0.000000
vn 0.000000 0.100000 0.000000
vn 0.000000 0.100000 0.000000
vn 0.000000 0.100000 0.000000
vn 0.000000 0.100000 0.000000
vn 0.000000 -0.100000 0.000000
vn 0.000000 -0.100000 0.000000
vn 0.000000 -0.100000 0.000000
vn 0.000000 -0.100000 0.000000
vn 0.000000 -0.100000 0.000000
vn 0.000000 -0.100000 0.000000
vn 0.000000 -0.100000 0.000000
vn 0.000000 -0.100000 0.000000
vn 0.000000 -0.100000 0.000000
vn 0.000000 -0.100000 0.000000
vn 0.000000 -0.100000 0.000000
vn 0.000000 -0.100000 0.000000
vn 0.000000 -0.100000 0.000000
vn 0.000000 -0.100000 0.000000
vn 0.000000 -0.100000 0.000000
vn 0.000000 -0.100000 0.000000
vn 0.000000 -0.100000 0.000000
vn 0.000000 -0.100000 0.000000
vn 0.000000 -0.100000 0.000000
vn 0.000000 -0.100000 0.000000
vn 0.000000 -0.100000 0.000000
vn 0.000000 -0.100000 0.000000
vn 0.000000 -0.100000 0.000000
vn 0.000000 -0.100000 0.000000
vn 0.000000 -0.100000 0.000000
vn 0.000000 -0.100000 0.000000
vn 0.000000 -0.100000 0.000000
vn 0.000000 -0.100000 0.000000
vn 0.000000 -0.100000 0.000000
vn 0.000000 -0.100000 0.000000
vn 0.000000 -0.100000 0.000000
vn 0.000000 -0.100000 0.000000
vn 0.000000 -0.100000 0.000000
vn 0.000000 -0.100000 0.000000
vn 0.000000 -0.100000 0.000000
vn 0.000000 -0.100000 0.000000
vn 0.000000 -0.100000 0.000000
vn 0.000000 -0.100000 0.000000
usemtl Steel_-_Satin
f 2/1/1 76/2/2 1/3/3
f 1/3/3 76/2/2 39/4/4
f 1/5/3 39/6/4 38/7/5
f 38/7/5 39/6/4 40/8/6
f 38/7/5 40/8/6 37/9/7
f 37/9/7 40/8/6 41/10/8
f 37/9/7 41/10/8 36/11/9
f 36/11/9 41/10/8 42/12/10
f 36/11/9 42/12/10 35/13/11
f 35/13/11 42/12/10 43/14/12
f 35/13/11 43/14/12 34/15/13
f 34/15/13 43/14/12 44/16/14
f 34/15/13 44/16/14 33/17/15
f 33/17/15 44/16/14 45/18/16
f 33/17/15 45/18/16 32/19/17
f 32/19/17 45/18/16 46/20/18
f 32/19/17 46/20/18 31/21/19
f 31/21/19 46/20/18 47/22/20
f 31/21/19 47/22/20 30/23/21
f 30/23/21 47/22/20 48/24/22
f 30/23/21 48/24/22 29/25/23
f 29/25/23 48/24/22 49/26/24
f 29/25/23 49/26/24 28/27/25
f 28/27/25 49/26/24 50/28/26
f 28/27/25 50/28/26 27/29/27
f 27/29/27 50/28/26 51/30/28
f 27/29/27 51/30/28 26/31/29
f 26/31/29 51/30/28 52/32/30
f 26/31/29 52/32/30 25/33/31
f 25/33/31 52/32/30 53/34/32
f 25/33/31 53/34/32 24/35/33
f 24/35/33 53/34/32 54/36/34
f 24/35/33 54/36/34 23/37/35
f 23/37/35 54/36/34 55/38/36
f 23/37/35 55/38/36 22/39/37
f 22/39/37 55/38/36 56/40/38
f 22/39/37 56/40/38 21/41/39
f 21/41/39 56/40/38 57/42/40
f 21/41/39 57/42/40 20/43/41
f 20/43/41 57/42/40 58/44/42
f 20/43/41 58/44/42 19/45/43
f 19/45/43 58/44/42 59/46/44
f 19/45/43 59/46/44 18/47/45
f 18/47/45 59/46/44 60/48/46
f 18/47/45 60/48/46 17/49/47
f 17/49/47 60/48/46 61/50/48
f 17/49/47 61/50/48 16/51/49
f 16/51/49 61/50/48 62/52/50
f 16/51/49 62/52/50 15/53/51
f 15/53/51 62/52/50 63/54/52
f 15/53/51 63/54/52 14/55/53
f 14/55/53 63/54/52 64/56/54
f 14/55/53 64/56/54 13/57/55
f 13/57/55 64/56/54 65/58/56
f 13/57/55 65/58/56 12/59/57
f 12/59/57 65/58/56 66/60/58
f 12/59/57 66/60/58 11/61/59
f 11/61/59 66/60/58 67/62/60
f 11/61/59 67/62/60 10/63/61
f 10/63/61 67/62/60 68/64/62
f 10/63/61 68/64/62 9/65/63
f 9/65/63 68/64/62 69/66/64
f 9/65/63 69/66/64 8/67/65
f 8/67/65 69/66/64 70/68/66
f 8/67/65 70/68/66 7/69/67
f 7/69/67 70/68/66 71/70/68
f 7/69/67 71/70/68 6/71/69
f 6/71/69 71/70/68 72/72/70
f 6/71/69 72/72/70 5/73/71
f 5/73/71 72/72/70 73/74/72
f 5/73/71 73/74/72 4/75/73
f 4/75/73 73/74/72 74/76/74
f 4/75/73 74/76/74 3/77/75
f 3/77/75 74/76/74 75/78/76
f 3/77/75 75/78/76 2/1/1
f 2/1/1 75/78/76 76/2/2
f 76/79/77 59/80/78 39/81/79
f 39/81/79 59/80/78 58/82/80
f 39/81/79 58/82/80 40/83/81
f 40/83/81 58/82/80 57/84/82
f 40/83/81 57/84/82 41/85/83
f 41/85/83 57/84/82 56/86/84
f 41/85/83 56/86/84 42/87/85
f 42/87/85 56/86/84 55/88/86
f 42/87/85 55/88/86 43/89/87
f 43/89/87 55/88/86 54/90/88
f 43/89/87 54/90/88 44/91/89
f 44/91/89 54/90/88 53/92/90
f 44/91/89 53/92/90 45/93/91
f 45/93/91 53/92/90 52/94/92
f 45/93/91 52/94/92 46/95/93
f 46/95/93 52/94/92 51/96/94
f 46/95/93 51/96/94 47/97/95
f 47/97/95 51/96/94 50/98/96
f 47/97/95 50/98/96 48/99/97
f 48/99/97 50/98/96 49/100/98
f 59/80/78 76/79/77 60/101/99
f 60/101/99 76/79/77 75/102/100
f 60/101/99 75/102/100 61/103/101
f 61/103/101 75/102/100 74/104/102
f 61/103/101 74/104/102 62/105/103
f 62/105/103 74/104/102 73/106/104
f 62/105/103 73/106/104 63/107/105
f 63/107/105 73/106/104 72/108/106
f 63/107/105 72/108/106 64/109/107
f 64/109/107 72/108/106 71/110/108
f 64/109/107 71/110/108 65/111/109
f 65/111/109 71/110/108 70/112/110
f 65/111/109 70/112/110 66/113/111
f 66/113/111 70/112/110 69/114/112
f 66/113/111 69/114/112 67/115/113
f 67/115/113 69/114/112 68/116/114
f 38/117/115 21/118/116 1/119/117
f 1/119/117 21/118/116 20/120/118
f 1/119/117 20/120/118 2/121/119
f 2/121/119 20/120/118 19/122/120
f 2/121/119 19/122/120 3/123/121
f 3/123/121 19/122/120 18/124/122
f 3/123/121 18/124/122 4/125/123
f 4/125/123 18/124/122 17/126/124
f 4/125/123 17/126/124 5/127/125
f 5/127/125 17/126/124 16/128/126
f 5/127/125 16/128/126 6/129/127
f 6/129/127 16/128/126 15/130/128
f 6/129/127 15/130/128 7/131/129
f 7/131/129 15/130/128 14/132/130
f 7/131/129 14/132/130 8/133/131
f 8/133/131 14/132/130 13/134/132
f 8/133/131 13/134/132 9/135/133
f 9/135/133 13/134/132 12/136/134
f 9/135/133 12/136/134 10/137/135
f 10/137/135 12/136/134 11/138/136
f 21/118/116 38/117/115 22/139/137
f 22/139/137 38/117/115 37/140/138
f 22/139/137 37/140/138 23/141/139
f 23/141/139 37/140/138 36/142/140
f 23/141/139 36/142/140 24/143/141
f 24/143/141 36/142/140 35/144/142
f 24/143/141 35/144/142 25/145/143
f 25/145/143 35/144/142 34/146/144
f 25/145/143 34/146/144 26/147/145
f 26/147/145 34/146/144 33/148/146
f 26/147/145 33/148/146 27/149/147
f 27/149/147 33/148/146 32/150/148
f 27/149/147 32/150/148 28/151/149
f 28/151/149 32/150/148 31/152/150
f 28/151/149 31/152/150 29/153/151
f 29/153/151 31/152/150 30/154/152
# 76 vertices
# 154 texture params
# 152 normals
# 148 facets

# 1 groups
