# WaveFront *.res file (generated by Autodesk ATF)

mtllib Body3.mtl

g Body3

v -55.429952 -52.000000 0.000000
v -55.429952 -52.000000 100.000000
v -100.000000 -52.000000 100.000000
v -100.000000 -52.000000 0.000000
v -55.429952 -1.000000 100.000000
v -100.000000 -1.000000 100.000000
v -55.429952 -1.000000 0.000000
v -100.000000 -1.000000 0.000000
vt 5.000000 -0.542995 0.000000
vt -5.000000 -0.542995 0.000000
vt 5.000000 -5.000000 0.000000
vt -5.000000 -5.000000 0.000000
vt 4.457005 0.100000 0.000000
vt -0.000000 0.100000 0.000000
vt 4.457005 -5.000000 0.000000
vt 0.000000 -5.000000 0.000000
vt 5.542995 -5.000000 0.000000
vt 10.000000 -5.000000 0.000000
vt 5.542995 0.100000 0.000000
vt 10.000000 0.100000 0.000000
vt 10.000000 0.100000 0.000000
vt 0.000000 0.100000 0.000000
vt 10.000000 -5.000000 0.000000
vt 0.000000 -5.000000 0.000000
vt -5.000000 0.542995 0.000000
vt 5.000000 0.542995 0.000000
vt -5.000000 5.000000 0.000000
vt 5.000000 5.000000 0.000000
vt -10.000000 -0.000000 0.000000
vt -0.000000 0.000000 0.000000
vt -10.000000 5.100000 0.000000
vt -0.000000 5.100000 0.000000
vn -0.000000 -0.100000 0.000000
vn -0.000000 -0.100000 0.000000
vn -0.000000 -0.100000 0.000000
vn -0.000000 -0.100000 0.000000
vn 0.000000 0.000000 0.100000
vn 0.000000 0.000000 0.100000
vn 0.000000 0.000000 0.100000
vn 0.000000 0.000000 0.100000
vn -0.000000 0.000000 -0.100000
vn -0.000000 0.000000 -0.100000
vn -0.000000 0.000000 -0.100000
vn -0.000000 0.000000 -0.100000
vn -0.100000 0.000000 0.000000
vn -0.100000 0.000000 0.000000
vn -0.100000 0.000000 0.000000
vn -0.100000 0.000000 0.000000
vn 0.000000 0.100000 0.000000
vn 0.000000 0.100000 0.000000
vn 0.000000 0.100000 0.000000
vn 0.000000 0.100000 0.000000
vn 0.100000 -0.000000 0.000000
vn 0.100000 -0.000000 0.000000
vn 0.100000 -0.000000 0.000000
vn 0.100000 -0.000000 0.000000
usemtl Glass_-_Heavy_Color_(Blue)
f 1/1/1 2/2/2 4/3/3
f 4/3/3 2/2/2 3/4/4
f 5/5/5 6/6/6 2/7/7
f 2/7/7 6/6/6 3/8/8
f 1/9/9 4/10/10 7/11/11
f 7/11/11 4/10/10 8/12/12
f 6/13/13 8/14/14 3/15/15
f 3/15/15 8/14/14 4/16/16
f 5/17/17 7/18/18 6/19/19
f 6/19/19 7/18/18 8/20/20
f 7/21/21 5/22/22 1/23/23
f 1/23/23 5/22/22 2/24/24
# 8 vertices
# 24 texture params
# 24 normals
# 12 facets

# 1 groups
