# WaveFront *.obj file (generated by Autodesk ATF)

mtllib Body10.mtl

g Body1

v -80.000000 0.000000 0.000000
v -80.000000 10.000000 0.000000
v -79.000000 10.000000 0.000000
v -22.287182 0.000000 0.000000
v -80.000000 0.000000 20.000000
v -22.287182 0.000000 20.000000
v -80.000000 10.000000 20.000000
v -79.000000 10.000000 20.000000
vt 1.000000 0.000000 0.000000
vt 1.000000 0.100000 0.000000
vt 0.000000 0.000000 0.000000
vt 0.000000 5.771282 0.000000
vt 0.000000 0.000000 0.000000
vt 2.000000 0.000000 0.000000
vt 0.000000 5.771282 0.000000
vt 2.000000 5.771282 0.000000
vt 0.000000 0.000000 0.000000
vt 1.000000 0.000000 0.000000
vt 0.000000 0.100000 0.000000
vt 1.000000 5.771282 0.000000
vt 0.000000 0.000000 0.000000
vt 2.000000 0.000000 0.000000
vt 0.000000 0.100000 0.000000
vt 2.000000 0.100000 0.000000
vt 1.000000 0.500000 0.000000
vt -1.000000 0.500000 0.000000
vt 1.000000 -5.258770 0.000000
vt -1.000000 -5.258770 0.000000
vt -0.500000 -1.000000 0.000000
vt 0.500000 -1.000000 0.000000
vt -0.500000 1.000000 0.000000
vt 0.500000 1.000000 0.000000
vn 0.000000 0.000000 -0.100000
vn 0.000000 0.000000 -0.100000
vn 0.000000 0.000000 -0.100000
vn 0.000000 0.000000 -0.100000
vn 0.000000 -0.100000 0.000000
vn 0.000000 -0.100000 0.000000
vn 0.000000 -0.100000 0.000000
vn 0.000000 -0.100000 0.000000
vn 0.000000 0.000000 0.100000
vn 0.000000 0.000000 0.100000
vn 0.000000 0.000000 0.100000
vn 0.000000 0.000000 0.100000
vn 0.000000 0.100000 0.000000
vn 0.000000 0.100000 0.000000
vn 0.000000 0.100000 0.000000
vn 0.000000 0.100000 0.000000
vn 0.017365 0.098481 0.000000
vn 0.017365 0.098481 0.000000
vn 0.017365 0.098481 0.000000
vn 0.017365 0.098481 0.000000
vn -0.100000 0.000000 0.000000
vn -0.100000 0.000000 0.000000
vn -0.100000 0.000000 0.000000
vn -0.100000 0.000000 0.000000
usemtl Steel_-_Satin
f 2/1/1 3/2/2 1/3/3
f 1/3/3 3/2/2 4/4/4
f 5/5/5 1/6/6 6/7/7
f 6/7/7 1/6/6 4/8/8
f 7/9/9 5/10/10 8/11/11
f 8/11/11 5/10/10 6/12/12
f 2/13/13 7/14/14 3/15/15
f 3/15/15 7/14/14 8/16/16
f 3/17/17 8/18/18 4/19/19
f 4/19/19 8/18/18 6/20/20
f 2/21/21 1/22/22 7/23/23
f 7/23/23 1/22/22 5/24/24
# 8 vertices
# 24 texture params
# 24 normals
# 12 facets

# 1 groups
