# WaveFront *.obj file (generated by Autodesk ATF)

mtllib Body1.mtl

g Body1

v -45.429952 -52.000000 100.000000
v -45.429952 -52.000000 0.000000
v -0.000000 -52.000000 0.000000
v -0.000000 -52.000000 100.000000
v -45.429952 -1.000000 100.000000
v -45.429952 -1.000000 0.000000
v 0.000000 -1.000000 100.000000
v 0.000000 -1.000000 0.000000
vt -5.000000 0.457005 0.000000
vt 5.000000 0.457005 0.000000
vt -5.000000 5.000000 0.000000
vt 5.000000 5.000000 0.000000
vt -10.000000 0.000000 0.000000
vt -0.000000 0.000000 0.000000
vt -10.000000 5.100000 0.000000
vt -0.000000 5.100000 0.000000
vt 5.457005 -5.000000 0.000000
vt 10.000000 -5.000000 0.000000
vt 5.457005 0.100000 0.000000
vt 10.000000 0.100000 0.000000
vt 5.000000 -0.457005 0.000000
vt -5.000000 -0.457005 0.000000
vt 5.000000 -5.000000 0.000000
vt -5.000000 -5.000000 0.000000
vt 4.542995 0.100000 0.000000
vt 0.000000 0.100000 0.000000
vt 4.542995 -5.000000 0.000000
vt 0.000000 -5.000000 0.000000
vt 10.000000 0.100000 0.000000
vt 0.000000 0.100000 0.000000
vt 10.000000 -5.000000 0.000000
vt 0.000000 -5.000000 0.000000
vn -0.000000 -0.100000 0.000000
vn -0.000000 -0.100000 0.000000
vn -0.000000 -0.100000 0.000000
vn -0.000000 -0.100000 0.000000
vn -0.100000 0.000000 -0.000000
vn -0.100000 0.000000 -0.000000
vn -0.100000 0.000000 -0.000000
vn -0.100000 0.000000 -0.000000
vn 0.000000 0.000000 0.100000
vn 0.000000 0.000000 0.100000
vn 0.000000 0.000000 0.100000
vn 0.000000 0.000000 0.100000
vn 0.000000 0.100000 0.000000
vn 0.000000 0.100000 0.000000
vn 0.000000 0.100000 0.000000
vn 0.000000 0.100000 0.000000
vn -0.000000 0.000000 -0.100000
vn -0.000000 0.000000 -0.100000
vn -0.000000 0.000000 -0.100000
vn -0.000000 0.000000 -0.100000
vn 0.100000 -0.000000 0.000000
vn 0.100000 -0.000000 0.000000
vn 0.100000 -0.000000 0.000000
vn 0.100000 -0.000000 0.000000
usemtl Glass_-_Heavy_Color_(Blue)
f 1/1/1 2/2/2 4/3/3
f 4/3/3 2/2/2 3/4/4
f 5/5/5 6/6/6 1/7/7
f 1/7/7 6/6/6 2/8/8
f 1/9/9 4/10/10 5/11/11
f 5/11/11 4/10/10 7/12/12
f 6/13/13 5/14/14 8/15/15
f 8/15/15 5/14/14 7/16/16
f 6/17/17 8/18/18 2/19/19
f 2/19/19 8/18/18 3/20/20
f 8/21/21 7/22/22 3/23/23
f 3/23/23 7/22/22 4/24/24
# 8 vertices
# 24 texture params
# 24 normals
# 12 facets

# 1 groups
